<svg xmlns="http://www.w3.org/2000/svg" xmlns:xlink="http://www.w3.org/1999/xlink" fill="none" version="1.1" width="24" height="24" viewBox="0 0 24 24"><defs><clipPath id="master_svg0_46_141934"><rect x="0" y="0" width="24" height="24" rx="12"/></clipPath><mask id="master_svg1_46_141943/1_4797" style="mask-type:alpha" maskUnits="objectBoundingBox"><g><path d="M20.148106640625,15.699743505859376L20.148106640625,8.298453505859374C20.148106640625,7.666753505859375,19.812806640625,7.085173505859375,19.268806640625,6.768433505859376L12.880136640625,3.0695565058593752C12.336156640625,2.754605905859375,11.663756640625,2.754605905859375,11.119776640625,3.0695565058593752L4.731096640625,6.770223505859375C4.187113640625,7.085173505859375,3.851806640625,7.668543505859375,3.851806640625,8.298453505859374L3.851806640625,15.699743505859376C3.851806640625,16.329643505859373,4.187113640625,16.913043505859378,4.731096640625,17.229843505859375L11.119776640625,20.930443505859376C11.663756640625,21.245443505859374,12.336156640625,21.245443505859374,12.880136640625,20.930443505859376L19.268806640625,17.229843505859375C19.812806640625,16.914843505859373,20.148106640625,16.331443505859376,20.148106640625,15.699743505859376Z" fill="#FFFFFF" fill-opacity="1"/></g></mask><mask id="master_svg2_46_141943/1_4795" style="mask-type:alpha" maskUnits="objectBoundingBox"><g><path d="M20.148106640625,15.699743505859376L20.148106640625,8.298453505859374C20.148106640625,7.666753505859375,19.812806640625,7.085173505859375,19.268806640625,6.768433505859376L12.880136640625,3.0695565058593752C12.336156640625,2.754605905859375,11.663756640625,2.754605905859375,11.119776640625,3.0695565058593752L4.731096640625,6.770223505859375C4.187113640625,7.085173505859375,3.851806640625,7.668543505859375,3.851806640625,8.298453505859374L3.851806640625,15.699743505859376C3.851806640625,16.329643505859373,4.187113640625,16.913043505859378,4.731096640625,17.229843505859375L11.119776640625,20.930443505859376C11.663756640625,21.245443505859374,12.336156640625,21.245443505859374,12.880136640625,20.930443505859376L19.268806640625,17.229843505859375C19.812806640625,16.914843505859373,20.148106640625,16.331443505859376,20.148106640625,15.699743505859376Z" fill="#FFFFFF" fill-opacity="1"/></g></mask><mask id="master_svg3_46_141943/1_4815" style="mask-type:alpha" maskUnits="objectBoundingBox"><g><path d="M20.148106640625,15.699743505859376L20.148106640625,8.298453505859374C20.148106640625,7.666753505859375,19.812806640625,7.085173505859375,19.268806640625,6.768433505859376L12.880136640625,3.0695565058593752C12.336156640625,2.754605905859375,11.663756640625,2.754605905859375,11.119776640625,3.0695565058593752L4.731096640625,6.770223505859375C4.187113640625,7.085173505859375,3.851806640625,7.668543505859375,3.851806640625,8.298453505859374L3.851806640625,15.699743505859376C3.851806640625,16.329643505859373,4.187113640625,16.913043505859378,4.731096640625,17.229843505859375L11.119776640625,20.930443505859376C11.663756640625,21.245443505859374,12.336156640625,21.245443505859374,12.880136640625,20.930443505859376L19.268806640625,17.229843505859375C19.812806640625,16.914843505859373,20.148106640625,16.331443505859376,20.148106640625,15.699743505859376Z" fill="#FFFFFF" fill-opacity="1"/></g></mask><mask id="master_svg4_46_141943/1_4787" style="mask-type:alpha" maskUnits="objectBoundingBox"><g><path d="M20.148106640625,15.699743505859376L20.148106640625,8.298453505859374C20.148106640625,7.666753505859375,19.812806640625,7.085173505859375,19.268806640625,6.768433505859376L12.880136640625,3.0695565058593752C12.336156640625,2.754605905859375,11.663756640625,2.754605905859375,11.119776640625,3.0695565058593752L4.731096640625,6.770223505859375C4.187113640625,7.085173505859375,3.851806640625,7.668543505859375,3.851806640625,8.298453505859374L3.851806640625,15.699743505859376C3.851806640625,16.329643505859373,4.187113640625,16.913043505859378,4.731096640625,17.229843505859375L11.119776640625,20.930443505859376C11.663756640625,21.245443505859374,12.336156640625,21.245443505859374,12.880136640625,20.930443505859376L19.268806640625,17.229843505859375C19.812806640625,16.914843505859373,20.148106640625,16.331443505859376,20.148106640625,15.699743505859376Z" fill="#FFFFFF" fill-opacity="1"/></g></mask><mask id="master_svg5_46_141943/1_4802" style="mask-type:alpha" maskUnits="objectBoundingBox"><g><path d="M20.148106640625,15.699743505859376L20.148106640625,8.298453505859374C20.148106640625,7.666753505859375,19.812806640625,7.085173505859375,19.268806640625,6.768433505859376L12.880136640625,3.0695565058593752C12.336156640625,2.754605905859375,11.663756640625,2.754605905859375,11.119776640625,3.0695565058593752L4.731096640625,6.770223505859375C4.187113640625,7.085173505859375,3.851806640625,7.668543505859375,3.851806640625,8.298453505859374L3.851806640625,15.699743505859376C3.851806640625,16.329643505859373,4.187113640625,16.913043505859378,4.731096640625,17.229843505859375L11.119776640625,20.930443505859376C11.663756640625,21.245443505859374,12.336156640625,21.245443505859374,12.880136640625,20.930443505859376L19.268806640625,17.229843505859375C19.812806640625,16.914843505859373,20.148106640625,16.331443505859376,20.148106640625,15.699743505859376Z" fill="#FFFFFF" fill-opacity="1"/></g></mask><mask id="master_svg6_46_141943/1_4789" style="mask-type:alpha" maskUnits="objectBoundingBox"><g><path d="M20.148106640625,15.699743505859376L20.148106640625,8.298453505859374C20.148106640625,7.666753505859375,19.812806640625,7.085173505859375,19.268806640625,6.768433505859376L12.880136640625,3.0695565058593752C12.336156640625,2.754605905859375,11.663756640625,2.754605905859375,11.119776640625,3.0695565058593752L4.731096640625,6.770223505859375C4.187113640625,7.085173505859375,3.851806640625,7.668543505859375,3.851806640625,8.298453505859374L3.851806640625,15.699743505859376C3.851806640625,16.329643505859373,4.187113640625,16.913043505859378,4.731096640625,17.229843505859375L11.119776640625,20.930443505859376C11.663756640625,21.245443505859374,12.336156640625,21.245443505859374,12.880136640625,20.930443505859376L19.268806640625,17.229843505859375C19.812806640625,16.914843505859373,20.148106640625,16.331443505859376,20.148106640625,15.699743505859376Z" fill="#FFFFFF" fill-opacity="1"/></g></mask><mask id="master_svg7_46_141943/1_4807" style="mask-type:alpha" maskUnits="objectBoundingBox"><g><path d="M20.148106640625,15.699743505859376L20.148106640625,8.298453505859374C20.148106640625,7.666753505859375,19.812806640625,7.085173505859375,19.268806640625,6.768433505859376L12.880136640625,3.0695565058593752C12.336156640625,2.754605905859375,11.663756640625,2.754605905859375,11.119776640625,3.0695565058593752L4.731096640625,6.770223505859375C4.187113640625,7.085173505859375,3.851806640625,7.668543505859375,3.851806640625,8.298453505859374L3.851806640625,15.699743505859376C3.851806640625,16.329643505859373,4.187113640625,16.913043505859378,4.731096640625,17.229843505859375L11.119776640625,20.930443505859376C11.663756640625,21.245443505859374,12.336156640625,21.245443505859374,12.880136640625,20.930443505859376L19.268806640625,17.229843505859375C19.812806640625,16.914843505859373,20.148106640625,16.331443505859376,20.148106640625,15.699743505859376Z" fill="#FFFFFF" fill-opacity="1"/></g></mask></defs><g clip-path="url(#master_svg0_46_141934)"><g><g><g mask="url(#master_svg1_46_141943/1_4797)"><g><path d="M16.07420091796875,4.920093463359375L19.40944091796875,6.850954443359375C19.73764091796875,7.0406444433593744,19.73764091796875,7.516644443359375,19.40944091796875,7.708124443359376L12.00057091796875,11.999324443359374L7.92694091796875,9.638984443359375L16.07420091796875,4.918304443359375L16.07420091796875,4.920093463359375Z" fill="#AB9BFF" fill-opacity="1"/></g></g><g mask="url(#master_svg2_46_141943/1_4795)"><g><path d="M11.999066640625,11.999176025390625L16.074506640625,14.359516025390626L7.925436640625,19.078396025390624L3.851806640625,16.719856025390627L11.999066640625,11.999176025390625Z" fill="#00EBD2" fill-opacity="1"/></g></g><g mask="url(#master_svg3_46_141943/1_4815)"><g><path d="M20.14964091796875,16.719562412109376L16.07598091796875,14.359222412109375L7.92694091796875,19.078102412109374L12.00057091796875,21.438442412109374L20.14964091796875,16.719562412109376Z" fill="#00CFCA" fill-opacity="1"/></g></g><g mask="url(#master_svg4_46_141943/1_4787)"><g><path d="M3.851806640625,7.280586005859375L7.925436640625,9.639136005859374L16.074506640625,4.920246005859375L11.999066640625,2.559906005859375" fill="#7347FF" fill-opacity="1"/></g></g><g mask="url(#master_svg5_46_141943/1_4802)"><g><path d="M7.92694091796875,9.639007568359375L7.92694091796875,14.359687568359375L12.00057091796875,11.999347568359376L7.92694091796875,9.639007568359375Z" fill="#1C54E4" fill-opacity="1"/></g></g><g mask="url(#master_svg6_46_141943/1_4789)"><g><path d="M20.13684357421875,12.843723068359376L20.14754357421875,16.719765068359376L16.07391357421875,14.359425068359375L19.39666357421875,12.417824368359375C19.72484357421875,12.226349068359376,20.13684357421875,12.462562068359375,20.13684357421875,12.843723068359376Z" fill="#00EBD2" fill-opacity="1"/></g></g><g mask="url(#master_svg7_46_141943/1_4807)"><g><path d="M3.851806640625,7.280303955078125L7.925436640625,9.638853955078126L7.925436640625,14.359533955078124L3.851806640625,16.719863955078125L3.851806640625,7.280303955078125Z" fill="#0423DB" fill-opacity="1"/></g></g></g></g><g><path d="M12,1.7053e-15L22.3923,6L22.3923,18L12,24L1.6077,18L1.60769,6L12,1.7053e-15Z" fill="#FFFFFF" fill-opacity="0.10000000149011612"/></g></g></svg>