<svg xmlns="http://www.w3.org/2000/svg" xmlns:xlink="http://www.w3.org/1999/xlink" fill="none" version="1.1" width="32" height="32" viewBox="0 0 32 32"><defs><clipPath id="master_svg0_15_092706/15_092092/2_79095"><rect x="0" y="0" width="32" height="32" rx="0"/></clipPath><filter id="master_svg1_15_092706/15_092092/2_79107" filterUnits="objectBoundingBox" color-interpolation-filters="sRGB" x="0" y="0" width="1" height="1"><feFlood flood-opacity="0" result="BackgroundImageFix"/><feBlend mode="normal" in="SourceGraphic" in2="BackgroundImageFix" result="shape"/><feColorMatrix in="SourceAlpha" type="matrix" result="hardAlpha" values="0 0 0 0 0 0 0 0 0 0 0 0 0 0 0 0 0 0 127 0"/><feOffset dy="-4.218749523162842" dx="0"/><feGaussianBlur stdDeviation="5.273437023162842"/><feComposite in2="hardAlpha" operator="arithmetic" k2="-1" k3="1"/><feColorMatrix type="matrix" values="0 0 0 0 1 0 0 0 0 1 0 0 0 0 1 0 0 0 0.5 0"/><feBlend mode="normal" in2="shape" result="effect1_innerShadow"/></filter><radialGradient cx="0" cy="0" r="1" gradientUnits="userSpaceOnUse" id="master_svg2_2_79106" gradientTransform="translate(14.668138980865479 17.420229511081857) rotate(90) scale(11.081054134548026 21.60801618847367)"><stop offset="0%" stop-color="#E5E4FF" stop-opacity="1"/><stop offset="5.8571625500917435%" stop-color="#C9C3FE" stop-opacity="1"/><stop offset="16.84460937976837%" stop-color="#AEA2FD" stop-opacity="1"/><stop offset="72.38991856575012%" stop-color="#8674FC" stop-opacity="1"/><stop offset="100%" stop-color="#5842EA" stop-opacity="1"/></radialGradient><mask id="master_svg3_15_092706/15_092092/2_79104" style="mask-type:alpha" maskUnits="objectBoundingBox"><g><path d="M18.338048148345948,5.11841375C18.338048148345948,3.1006037500000003,16.694948148345947,1.46484375,14.668148148345947,1.46484375C12.641248148345948,1.46484375,10.998198148345947,3.1006037500000003,10.998198148345947,5.11841375L5.126298148345947,5.11841375C3.5048181483459473,5.11841375,2.1903481483459473,6.42702375,2.1903481483459473,8.04127375L2.1903481483459473,13.15624375C4.217198148345947,13.15624375,5.860288148345948,14.79204375,5.860288148345948,16.80984375C5.860288148345948,18.82764375,4.217198148345947,20.46344375,2.1903481483459473,20.46344375L2.1903481483459473,25.57844375C2.1903481483459473,27.19264375,3.5048181483459473,28.50124375,5.126298148345947,28.50124375L10.998198148345947,28.50124375C10.998198148345947,26.48344375,12.641248148345948,24.84774375,14.668148148345947,24.84774375C16.694948148345947,24.84774375,18.338048148345948,26.48344375,18.338048148345948,28.50124375L24.209948148345948,28.50124375C25.83144814834595,28.50124375,27.145948148345948,27.19264375,27.145948148345948,25.57844375L27.145948148345948,8.04127375C27.145948148345948,6.42702375,25.83144814834595,5.11841375,24.209948148345948,5.11841375L18.338048148345948,5.11841375Z" fill-rule="evenodd" fill="#FFFFFF" fill-opacity="1"/></g></mask><linearGradient x1="0.5" y1="0" x2="0.5" y2="1" id="master_svg4_2_79103"><stop offset="0%" stop-color="#FFFFFF" stop-opacity="1"/><stop offset="100%" stop-color="#CFF0FF" stop-opacity="0"/></linearGradient><radialGradient cx="0" cy="0" r="1" gradientUnits="userSpaceOnUse" id="master_svg5_2_79099" gradientTransform="translate(27.14731454849243 16.715975284576416) rotate(90) scale(4.852694034576416 4.917733177936043)"><stop offset="0%" stop-color="#FFFFFF" stop-opacity="0.41999998688697815"/><stop offset="54.28571701049805%" stop-color="#E3D0FF" stop-opacity="1"/><stop offset="97.85714149475098%" stop-color="#F8D8FF" stop-opacity="1"/></radialGradient></defs><g clip-path="url(#master_svg0_15_092706/15_092092/2_79095)"><g filter="url(#master_svg1_15_092706/15_092092/2_79107)"></g><g><g mask="url(#master_svg3_15_092706/15_092092/2_79104)"><g><path d="M18.338048148345948,5.11841375C18.338048148345948,3.1006037500000003,16.694948148345947,1.46484375,14.668148148345947,1.46484375C12.641248148345948,1.46484375,10.998198148345947,3.1006037500000003,10.998198148345947,5.11841375L5.126298148345947,5.11841375C3.5048181483459473,5.11841375,2.1903481483459473,6.42702375,2.1903481483459473,8.04127375L2.1903481483459473,13.15624375C4.217198148345947,13.15624375,5.860288148345948,14.79204375,5.860288148345948,16.80984375C5.860288148345948,18.82764375,4.217198148345947,20.46344375,2.1903481483459473,20.46344375L2.1903481483459473,25.57844375C2.1903481483459473,27.19264375,3.5048181483459473,28.50124375,5.126298148345947,28.50124375L10.998198148345947,28.50124375C10.998198148345947,26.48344375,12.641248148345948,24.84774375,14.668148148345947,24.84774375C16.694948148345947,24.84774375,18.338048148345948,26.48344375,18.338048148345948,28.50124375L24.209948148345948,28.50124375C25.83144814834595,28.50124375,27.145948148345948,27.19264375,27.145948148345948,25.57844375L27.145948148345948,8.04127375C27.145948148345948,6.42702375,25.83144814834595,5.11841375,24.209948148345948,5.11841375L18.338048148345948,5.11841375Z" fill-rule="evenodd" fill="url(#master_svg2_2_79106)" fill-opacity="1"/></g><g transform="matrix(1,0,0,-1,0,34.8203125)" style="opacity:0.5;"><path d="M-2.6631674766540527,17.41015625L14.667132523345948,17.41015625L14.667132523345948,32.66145625L-2.6631674766540527,32.66145625L-2.6631674766540527,17.41015625Z" fill="url(#master_svg4_2_79103)" fill-opacity="1"/></g></g><g><ellipse cx="27.14731454849243" cy="16.715975284576416" rx="4.852474212646484" ry="4.852694034576416" fill="url(#master_svg5_2_79099)" fill-opacity="1"/></g></g></g></svg>