<svg xmlns="http://www.w3.org/2000/svg" xmlns:xlink="http://www.w3.org/1999/xlink" fill="none" version="1.1" width="14" height="14" viewBox="0 0 14 14"><defs><clipPath id="master_svg0_41_118398/15_028743"><rect x="0" y="0" width="14" height="14" rx="0"/></clipPath><mask id="master_svg1_41_118398/15_028772" style="mask-type:alpha" maskUnits="objectBoundingBox"><g><path d="M3.2823171615600586,3.4997464717674256L4.331187161560059,5.332916471767425L11.763737161560059,5.332916471767425L12.716487161560059,3.6653664717674257L5.094517161560058,3.6653664717674257L6.047257161560059,2.000666471767426L5.094517161560058,0.33311647176742554L3.2823171615600586,3.4997464717674256Z" fill="#FFFFFF" fill-opacity="1"/></g></mask><mask id="master_svg2_41_118398/15_028767" style="mask-type:alpha" maskUnits="objectBoundingBox"><g transform="matrix(0.8638590574264526,-0.5037336945533752,0.4962756037712097,0.8681650161743164,-0.630382580261557,0.782712031800429)"><rect x="1.1395673751831055" y="1.5828389525413513" width="10.670876502990723" height="9.072016716003418" rx="0" fill="#FFFFFF" fill-opacity="1"/></g></mask><mask id="master_svg3_41_118398/15_028771" style="mask-type:alpha" maskUnits="objectBoundingBox"><g><path d="M3.2823171615600586,3.4997464717674256L4.331187161560059,5.332916471767425L11.763737161560059,5.332916471767425L12.716487161560059,3.6653664717674257L5.094517161560058,3.6653664717674257L6.047257161560059,2.000666471767426L5.094517161560058,0.33311647176742554L3.2823171615600586,3.4997464717674256Z" fill="#FFFFFF" fill-opacity="1"/></g></mask><linearGradient x1="0.05081009119749069" y1="1.319466233253479" x2="0.812010645866394" y2="1.319466233253479" id="master_svg4_2_17184"><stop offset="0%" stop-color="#615CED" stop-opacity="1"/><stop offset="0%" stop-color="#6863ED" stop-opacity="1"/><stop offset="1.9999999552965164%" stop-color="#8B87F1" stop-opacity="1"/><stop offset="2.9999999329447746%" stop-color="#ABA8F5" stop-opacity="1"/><stop offset="5.000000074505806%" stop-color="#C5C3F8" stop-opacity="1"/><stop offset="5.999999865889549%" stop-color="#DAD9FA" stop-opacity="1"/><stop offset="9.000000357627869%" stop-color="#EBEAFC" stop-opacity="1"/><stop offset="10.999999940395355%" stop-color="#F6F6FE" stop-opacity="1"/><stop offset="15.000000596046448%" stop-color="#FDFDFE" stop-opacity="1"/><stop offset="25%" stop-color="#FFFFFF" stop-opacity="1"/><stop offset="100%" stop-color="#FFFFFF" stop-opacity="1"/></linearGradient><mask id="master_svg5_41_118398/15_028754" style="mask-type:alpha" maskUnits="objectBoundingBox"><g><path d="M1.2835149765014648,3.665440022945404L5.094504976501465,10.332790022945403L3.1890049765014647,10.332790022945403L2.2362609765014647,12.000340022945403L5.855004976501465,12.000340022945403L6.903874976501465,10.167170022945404L3.1890049765014647,3.665440022945404L1.2835149765014648,3.665440022945404Z" fill="#FFFFFF" fill-opacity="1"/></g></mask><mask id="master_svg6_41_118398/15_028749" style="mask-type:alpha" maskUnits="objectBoundingBox"><g transform="matrix(0.4962756037712097,-0.8681650161743164,0.8638589382171631,0.5037336349487305,-9.721552219398475,2.93358132249449)"><rect x="-2.2903852462768555" y="9.918088376522064" width="10.031915664672852" height="9.015686988830566" rx="0" fill="#FFFFFF" fill-opacity="1"/></g></mask><mask id="master_svg7_41_118398/15_028752" style="mask-type:alpha" maskUnits="objectBoundingBox"><g><path d="M1.2835149765014648,3.665440022945404L5.094504976501465,10.332790022945403L3.1890049765014647,10.332790022945403L2.2362609765014647,12.000340022945403L5.855004976501465,12.000340022945403L6.903874976501465,10.167170022945404L3.1890049765014647,3.665440022945404L1.2835149765014648,3.665440022945404Z" fill="#FFFFFF" fill-opacity="1"/></g></mask><linearGradient x1="1.202123761177063" y1="0.9260735511779785" x2="1.202123761177063" y2="0.02512417547404766" id="master_svg8_2_17211"><stop offset="0%" stop-color="#615CED" stop-opacity="1"/><stop offset="0%" stop-color="#6863ED" stop-opacity="1"/><stop offset="1.9999999552965164%" stop-color="#8B87F1" stop-opacity="1"/><stop offset="2.9999999329447746%" stop-color="#ABA8F5" stop-opacity="1"/><stop offset="5.000000074505806%" stop-color="#C5C3F8" stop-opacity="1"/><stop offset="5.999999865889549%" stop-color="#DAD9FA" stop-opacity="1"/><stop offset="9.000000357627869%" stop-color="#EBEAFC" stop-opacity="1"/><stop offset="10.999999940395355%" stop-color="#F6F6FE" stop-opacity="1"/><stop offset="15.000000596046448%" stop-color="#FDFDFE" stop-opacity="1"/><stop offset="25%" stop-color="#FFFFFF" stop-opacity="1"/><stop offset="100%" stop-color="#FFFFFF" stop-opacity="1"/></linearGradient><mask id="master_svg9_41_118398/15_028756" style="mask-type:alpha" maskUnits="objectBoundingBox"><g><path d="M9.762116469726562,5.5013814967393495L6.0472564697265625,12.00025603673935L7.000003469726563,13.66780603673935L10.810986469726561,7.00046603673935L11.763736469726563,8.668016036739349L13.669226469726564,8.668016036739349L11.859856469726562,5.498526036739349L9.762116469726562,5.5013814967393495Z" fill="#FFFFFF" fill-opacity="1"/></g></mask><mask id="master_svga_41_118398/15_028763" style="mask-type:alpha" maskUnits="objectBoundingBox"><g><rect x="6.0472564697265625" y="5.498526036739349" width="7.621971130371094" height="8.16642951965332" rx="0" fill="#FFFFFF" fill-opacity="1"/></g></mask><mask id="master_svgb_41_118398/15_028761" style="mask-type:alpha" maskUnits="objectBoundingBox"><g><path d="M9.762116469726562,5.5013814967393495L6.0472564697265625,12.00025603673935L7.000003469726563,13.66780603673935L10.810986469726561,7.00046603673935L11.763736469726563,8.668016036739349L13.669226469726564,8.668016036739349L11.859856469726562,5.498526036739349L9.762116469726562,5.5013814967393495Z" fill="#FFFFFF" fill-opacity="1"/></g></mask><linearGradient x1="-0.45096439123153687" y1="-0.0055734263733029366" x2="-0.45096439123153687" y2="0.9964964985847473" id="master_svgc_2_17197"><stop offset="0%" stop-color="#615CED" stop-opacity="1"/><stop offset="0%" stop-color="#6863ED" stop-opacity="1"/><stop offset="1.9999999552965164%" stop-color="#8B87F1" stop-opacity="1"/><stop offset="2.9999999329447746%" stop-color="#ABA8F5" stop-opacity="1"/><stop offset="5.000000074505806%" stop-color="#C5C3F8" stop-opacity="1"/><stop offset="5.999999865889549%" stop-color="#DAD9FA" stop-opacity="1"/><stop offset="9.000000357627869%" stop-color="#EBEAFC" stop-opacity="1"/><stop offset="10.999999940395355%" stop-color="#F6F6FE" stop-opacity="1"/><stop offset="15.000000596046448%" stop-color="#FDFDFE" stop-opacity="1"/><stop offset="25%" stop-color="#FFFFFF" stop-opacity="1"/><stop offset="100%" stop-color="#FFFFFF" stop-opacity="1"/></linearGradient><mask id="master_svgd_41_118398/15_028775" style="mask-type:alpha" maskUnits="objectBoundingBox"><g><path d="M6.04725,12.000669109249115L7,10.333169109249114L9.76212,5.498969109249115L11.8599,5.498969109249115L13.6692,8.665599109249115L11.7637,8.665599109249115L10.811,6.998049109249115L7,13.665369109249115L6.04725,11.997869109249114L6.04725,12.000669109249115ZM1.28352,3.665809109249115L3.18901,3.665809109249115L4.14176,5.333359109249115L6.90388,10.167569109249115L5.85501,12.000669109249115L2.23627,12.000669109249115L3.18901,10.333169109249114L5.09451,10.333169109249114L1.28352,3.665809109249115ZM3.28231,3.500189109249115L5.09451,0.33355910924911497L6.04725,2.001109109249115L5.09451,3.668659109249115L12.7165,3.668659109249115L11.7637,5.336209109249115L4.33118,5.336209109249115L3.28231,3.503049109249115L3.28231,3.500189109249115ZM5.09451,-0.0005217207508850094C5.03514,-0.0005217207508850094,4.97859,0.01375520924911499,4.93053,0.04516460924911499C4.88247,0.073718509249115,4.84006,0.11654910924911499,4.80897,0.167946109249115L3.18901,3.000499109249115L2.9996,3.334579109249115L1.28352,3.334579109249115C1.22415,3.334579109249115,1.16761,3.348859109249115,1.11955,3.380269109249115C1.06866,3.408819109249115,1.02908,3.451649109249115,0.997981,3.503049109249115L0.0452342,5.164889109249115C0.0169628,5.216289109249115,0,5.273389109249115,0,5.330499109249115C0,5.387609109249115,0.0141357,5.444719109249115,0.0452342,5.496109109249115L1.8546,8.662749109249114L0.997981,10.161869109249116C0.969709,10.213269109249115,0.952746,10.270369109249115,0.952746,10.327469109249115C0.952746,10.384569109249115,0.966882,10.441669109249116,0.997981,10.493069109249115L1.95073,12.160569109249115C1.979,12.211969109249114,2.02141,12.254869109249116,2.07229,12.283369109249115C2.12036,12.311969109249114,2.1769,12.329069109249115,2.23627,12.329069109249115L5.85501,12.329069109249115L6.71163,13.828169109249115C6.771,13.930969109249116,6.87843,13.993769109249115,6.99717,13.993769109249115L8.90267,13.993769109249115C8.96204,13.993769109249115,9.01858,13.979469109249115,9.06664,13.948069109249115C9.1147,13.919569109249116,9.15711,13.876669109249114,9.18821,13.825269109249115L10.9976,10.658669109249114L12.7137,10.658669109249114C12.773,10.658669109249114,12.8296,10.641569109249115,12.8776,10.612969109249114C12.9257,10.584469109249115,12.9681,10.541569109249115,12.9992,10.490169109249114L13.9519,8.822649109249115C13.983,8.771249109249116,13.9972,8.714149109249115,13.9972,8.657039109249116C13.9972,8.599929109249114,13.983,8.542819109249114,13.9519,8.491419109249115L12.332,5.658869109249115L12.1426,5.324789109249115L12.9992,3.825709109249115C13.0275,3.774309109249115,13.0444,3.717199109249115,13.0444,3.660099109249115C13.0444,3.602989109249115,13.0303,3.545879109249115,12.9992,3.494479109249115L12.0464,1.826929109249115C12.0182,1.775539109249115,11.9758,1.732709109249115,11.9249,1.704149109249115C11.8768,1.675599109249115,11.8174,1.658469109249115,11.7609,1.658469109249115L8.13934,1.658469109249115L7.28271,0.159382109249115C7.22334,0.056587809249114995,7.11591,-0.00623089075088501,6.99717,-0.00623089075088501L5.09168,-0.00623089075088501L5.09451,-0.0005217207508850094Z" fill="#FFFFFF" fill-opacity="1"/></g></mask><linearGradient x1="0.869928777217865" y1="0.04676584526896477" x2="0.14105044305324554" y2="0.04676584526896477" id="master_svge_2_17161"><stop offset="0%" stop-color="#615CED" stop-opacity="1"/><stop offset="17.000000178813934%" stop-color="#6156EC" stop-opacity="1"/><stop offset="37.99999952316284%" stop-color="#6147E9" stop-opacity="1"/><stop offset="61.000001430511475%" stop-color="#622FE4" stop-opacity="1"/><stop offset="62.00000047683716%" stop-color="#632DE4" stop-opacity="1"/><stop offset="100%" stop-color="#632DE4" stop-opacity="1"/></linearGradient><mask id="master_svgf_41_118398/15_028787" style="mask-type:alpha" maskUnits="objectBoundingBox"><g><path d="M6.04725,12.000669109249115L7,10.333169109249114L9.76212,5.498969109249115L11.8599,5.498969109249115L13.6692,8.665599109249115L11.7637,8.665599109249115L10.811,6.998049109249115L7,13.665369109249115L6.04725,11.997869109249114L6.04725,12.000669109249115ZM1.28352,3.665809109249115L3.18901,3.665809109249115L4.14176,5.333359109249115L6.90388,10.167569109249115L5.85501,12.000669109249115L2.23627,12.000669109249115L3.18901,10.333169109249114L5.09451,10.333169109249114L1.28352,3.665809109249115ZM3.28231,3.500189109249115L5.09451,0.33355910924911497L6.04725,2.001109109249115L5.09451,3.668659109249115L12.7165,3.668659109249115L11.7637,5.336209109249115L4.33118,5.336209109249115L3.28231,3.503049109249115L3.28231,3.500189109249115ZM5.09451,-0.0005217207508850094C5.03514,-0.0005217207508850094,4.97859,0.01375520924911499,4.93053,0.04516460924911499C4.88247,0.073718509249115,4.84006,0.11654910924911499,4.80897,0.167946109249115L3.18901,3.000499109249115L2.9996,3.334579109249115L1.28352,3.334579109249115C1.22415,3.334579109249115,1.16761,3.348859109249115,1.11955,3.380269109249115C1.06866,3.408819109249115,1.02908,3.451649109249115,0.997981,3.503049109249115L0.0452342,5.164889109249115C0.0169628,5.216289109249115,0,5.273389109249115,0,5.330499109249115C0,5.387609109249115,0.0141357,5.444719109249115,0.0452342,5.496109109249115L1.8546,8.662749109249114L0.997981,10.161869109249116C0.969709,10.213269109249115,0.952746,10.270369109249115,0.952746,10.327469109249115C0.952746,10.384569109249115,0.966882,10.441669109249116,0.997981,10.493069109249115L1.95073,12.160569109249115C1.979,12.211969109249114,2.02141,12.254869109249116,2.07229,12.283369109249115C2.12036,12.311969109249114,2.1769,12.329069109249115,2.23627,12.329069109249115L5.85501,12.329069109249115L6.71163,13.828169109249115C6.771,13.930969109249116,6.87843,13.993769109249115,6.99717,13.993769109249115L8.90267,13.993769109249115C8.96204,13.993769109249115,9.01858,13.979469109249115,9.06664,13.948069109249115C9.1147,13.919569109249116,9.15711,13.876669109249114,9.18821,13.825269109249115L10.9976,10.658669109249114L12.7137,10.658669109249114C12.773,10.658669109249114,12.8296,10.641569109249115,12.8776,10.612969109249114C12.9257,10.584469109249115,12.9681,10.541569109249115,12.9992,10.490169109249114L13.9519,8.822649109249115C13.983,8.771249109249116,13.9972,8.714149109249115,13.9972,8.657039109249116C13.9972,8.599929109249114,13.983,8.542819109249114,13.9519,8.491419109249115L12.332,5.658869109249115L12.1426,5.324789109249115L12.9992,3.825709109249115C13.0275,3.774309109249115,13.0444,3.717199109249115,13.0444,3.660099109249115C13.0444,3.602989109249115,13.0303,3.545879109249115,12.9992,3.494479109249115L12.0464,1.826929109249115C12.0182,1.775539109249115,11.9758,1.732709109249115,11.9249,1.704149109249115C11.8768,1.675599109249115,11.8174,1.658469109249115,11.7609,1.658469109249115L8.13934,1.658469109249115L7.28271,0.159382109249115C7.22334,0.056587809249114995,7.11591,-0.00623089075088501,6.99717,-0.00623089075088501L5.09168,-0.00623089075088501L5.09451,-0.0005217207508850094Z" fill="#FFFFFF" fill-opacity="1"/></g></mask><mask id="master_svgg_41_118398/15_028794" style="mask-type:alpha" maskUnits="objectBoundingBox"><g><rect x="0" y="0" width="14.000000953674316" height="14" rx="0" fill="#FFFFFF" fill-opacity="1"/></g></mask><mask id="master_svgh_41_118398/15_028793" style="mask-type:alpha" maskUnits="objectBoundingBox"><g><path d="M6.04725,12.000669109249115L7,10.333169109249114L9.76212,5.498969109249115L11.8599,5.498969109249115L13.6692,8.665599109249115L11.7637,8.665599109249115L10.811,6.998049109249115L7,13.665369109249115L6.04725,11.997869109249114L6.04725,12.000669109249115ZM1.28352,3.665809109249115L3.18901,3.665809109249115L4.14176,5.333359109249115L6.90388,10.167569109249115L5.85501,12.000669109249115L2.23627,12.000669109249115L3.18901,10.333169109249114L5.09451,10.333169109249114L1.28352,3.665809109249115ZM3.28231,3.500189109249115L5.09451,0.33355910924911497L6.04725,2.001109109249115L5.09451,3.668659109249115L12.7165,3.668659109249115L11.7637,5.336209109249115L4.33118,5.336209109249115L3.28231,3.503049109249115L3.28231,3.500189109249115ZM5.09451,-0.0005217207508850094C5.03514,-0.0005217207508850094,4.97859,0.01375520924911499,4.93053,0.04516460924911499C4.88247,0.073718509249115,4.84006,0.11654910924911499,4.80897,0.167946109249115L3.18901,3.000499109249115L2.9996,3.334579109249115L1.28352,3.334579109249115C1.22415,3.334579109249115,1.16761,3.348859109249115,1.11955,3.380269109249115C1.06866,3.408819109249115,1.02908,3.451649109249115,0.997981,3.503049109249115L0.0452342,5.164889109249115C0.0169628,5.216289109249115,0,5.273389109249115,0,5.330499109249115C0,5.387609109249115,0.0141357,5.444719109249115,0.0452342,5.496109109249115L1.8546,8.662749109249114L0.997981,10.161869109249116C0.969709,10.213269109249115,0.952746,10.270369109249115,0.952746,10.327469109249115C0.952746,10.384569109249115,0.966882,10.441669109249116,0.997981,10.493069109249115L1.95073,12.160569109249115C1.979,12.211969109249114,2.02141,12.254869109249116,2.07229,12.283369109249115C2.12036,12.311969109249114,2.1769,12.329069109249115,2.23627,12.329069109249115L5.85501,12.329069109249115L6.71163,13.828169109249115C6.771,13.930969109249116,6.87843,13.993769109249115,6.99717,13.993769109249115L8.90267,13.993769109249115C8.96204,13.993769109249115,9.01858,13.979469109249115,9.06664,13.948069109249115C9.1147,13.919569109249116,9.15711,13.876669109249114,9.18821,13.825269109249115L10.9976,10.658669109249114L12.7137,10.658669109249114C12.773,10.658669109249114,12.8296,10.641569109249115,12.8776,10.612969109249114C12.9257,10.584469109249115,12.9681,10.541569109249115,12.9992,10.490169109249114L13.9519,8.822649109249115C13.983,8.771249109249116,13.9972,8.714149109249115,13.9972,8.657039109249116C13.9972,8.599929109249114,13.983,8.542819109249114,13.9519,8.491419109249115L12.332,5.658869109249115L12.1426,5.324789109249115L12.9992,3.825709109249115C13.0275,3.774309109249115,13.0444,3.717199109249115,13.0444,3.660099109249115C13.0444,3.602989109249115,13.0303,3.545879109249115,12.9992,3.494479109249115L12.0464,1.826929109249115C12.0182,1.775539109249115,11.9758,1.732709109249115,11.9249,1.704149109249115C11.8768,1.675599109249115,11.8174,1.658469109249115,11.7609,1.658469109249115L8.13934,1.658469109249115L7.28271,0.159382109249115C7.22334,0.056587809249114995,7.11591,-0.00623089075088501,6.99717,-0.00623089075088501L5.09168,-0.00623089075088501L5.09451,-0.0005217207508850094Z" fill="#FFFFFF" fill-opacity="1"/></g></mask><linearGradient x1="0.01489701122045517" y1="0.0800122395157814" x2="1.0166417360305786" y2="0.0800122395157814" id="master_svgi_2_17175"><stop offset="0%" stop-color="#615CED" stop-opacity="1"/><stop offset="40.00000059604645%" stop-color="#615CED" stop-opacity="1"/><stop offset="100%" stop-color="#615CED" stop-opacity="1"/></linearGradient><mask id="master_svgj_41_118398/15_028778" style="mask-type:alpha" maskUnits="objectBoundingBox"><g><path d="M6.04725,12.000669109249115L7,10.333169109249114L9.76212,5.498969109249115L11.8599,5.498969109249115L13.6692,8.665599109249115L11.7637,8.665599109249115L10.811,6.998049109249115L7,13.665369109249115L6.04725,11.997869109249114L6.04725,12.000669109249115ZM1.28352,3.665809109249115L3.18901,3.665809109249115L4.14176,5.333359109249115L6.90388,10.167569109249115L5.85501,12.000669109249115L2.23627,12.000669109249115L3.18901,10.333169109249114L5.09451,10.333169109249114L1.28352,3.665809109249115ZM3.28231,3.500189109249115L5.09451,0.33355910924911497L6.04725,2.001109109249115L5.09451,3.668659109249115L12.7165,3.668659109249115L11.7637,5.336209109249115L4.33118,5.336209109249115L3.28231,3.503049109249115L3.28231,3.500189109249115ZM5.09451,-0.0005217207508850094C5.03514,-0.0005217207508850094,4.97859,0.01375520924911499,4.93053,0.04516460924911499C4.88247,0.073718509249115,4.84006,0.11654910924911499,4.80897,0.167946109249115L3.18901,3.000499109249115L2.9996,3.334579109249115L1.28352,3.334579109249115C1.22415,3.334579109249115,1.16761,3.348859109249115,1.11955,3.380269109249115C1.06866,3.408819109249115,1.02908,3.451649109249115,0.997981,3.503049109249115L0.0452342,5.164889109249115C0.0169628,5.216289109249115,0,5.273389109249115,0,5.330499109249115C0,5.387609109249115,0.0141357,5.444719109249115,0.0452342,5.496109109249115L1.8546,8.662749109249114L0.997981,10.161869109249116C0.969709,10.213269109249115,0.952746,10.270369109249115,0.952746,10.327469109249115C0.952746,10.384569109249115,0.966882,10.441669109249116,0.997981,10.493069109249115L1.95073,12.160569109249115C1.979,12.211969109249114,2.02141,12.254869109249116,2.07229,12.283369109249115C2.12036,12.311969109249114,2.1769,12.329069109249115,2.23627,12.329069109249115L5.85501,12.329069109249115L6.71163,13.828169109249115C6.771,13.930969109249116,6.87843,13.993769109249115,6.99717,13.993769109249115L8.90267,13.993769109249115C8.96204,13.993769109249115,9.01858,13.979469109249115,9.06664,13.948069109249115C9.1147,13.919569109249116,9.15711,13.876669109249114,9.18821,13.825269109249115L10.9976,10.658669109249114L12.7137,10.658669109249114C12.773,10.658669109249114,12.8296,10.641569109249115,12.8776,10.612969109249114C12.9257,10.584469109249115,12.9681,10.541569109249115,12.9992,10.490169109249114L13.9519,8.822649109249115C13.983,8.771249109249116,13.9972,8.714149109249115,13.9972,8.657039109249116C13.9972,8.599929109249114,13.983,8.542819109249114,13.9519,8.491419109249115L12.332,5.658869109249115L12.1426,5.324789109249115L12.9992,3.825709109249115C13.0275,3.774309109249115,13.0444,3.717199109249115,13.0444,3.660099109249115C13.0444,3.602989109249115,13.0303,3.545879109249115,12.9992,3.494479109249115L12.0464,1.826929109249115C12.0182,1.775539109249115,11.9758,1.732709109249115,11.9249,1.704149109249115C11.8768,1.675599109249115,11.8174,1.658469109249115,11.7609,1.658469109249115L8.13934,1.658469109249115L7.28271,0.159382109249115C7.22334,0.056587809249114995,7.11591,-0.00623089075088501,6.99717,-0.00623089075088501L5.09168,-0.00623089075088501L5.09451,-0.0005217207508850094Z" fill="#FFFFFF" fill-opacity="1"/></g></mask><mask id="master_svgk_41_118398/15_028785" style="mask-type:alpha" maskUnits="objectBoundingBox"><g transform="matrix(0.49627557396888733,-0.8681650161743164,0.8638589382171631,0.5037336945533752,-12.094019020139982,0.0017269996753022099)"><rect x="-6.000640869140625" y="10.500961720943451" width="19.146656036376953" height="19.10271453857422" rx="0" fill="#FFFFFF" fill-opacity="1"/></g></mask><mask id="master_svgl_41_118398/15_028784" style="mask-type:alpha" maskUnits="objectBoundingBox"><g><path d="M6.04725,12.000669109249115L7,10.333169109249114L9.76212,5.498969109249115L11.8599,5.498969109249115L13.6692,8.665599109249115L11.7637,8.665599109249115L10.811,6.998049109249115L7,13.665369109249115L6.04725,11.997869109249114L6.04725,12.000669109249115ZM1.28352,3.665809109249115L3.18901,3.665809109249115L4.14176,5.333359109249115L6.90388,10.167569109249115L5.85501,12.000669109249115L2.23627,12.000669109249115L3.18901,10.333169109249114L5.09451,10.333169109249114L1.28352,3.665809109249115ZM3.28231,3.500189109249115L5.09451,0.33355910924911497L6.04725,2.001109109249115L5.09451,3.668659109249115L12.7165,3.668659109249115L11.7637,5.336209109249115L4.33118,5.336209109249115L3.28231,3.503049109249115L3.28231,3.500189109249115ZM5.09451,-0.0005217207508850094C5.03514,-0.0005217207508850094,4.97859,0.01375520924911499,4.93053,0.04516460924911499C4.88247,0.073718509249115,4.84006,0.11654910924911499,4.80897,0.167946109249115L3.18901,3.000499109249115L2.9996,3.334579109249115L1.28352,3.334579109249115C1.22415,3.334579109249115,1.16761,3.348859109249115,1.11955,3.380269109249115C1.06866,3.408819109249115,1.02908,3.451649109249115,0.997981,3.503049109249115L0.0452342,5.164889109249115C0.0169628,5.216289109249115,0,5.273389109249115,0,5.330499109249115C0,5.387609109249115,0.0141357,5.444719109249115,0.0452342,5.496109109249115L1.8546,8.662749109249114L0.997981,10.161869109249116C0.969709,10.213269109249115,0.952746,10.270369109249115,0.952746,10.327469109249115C0.952746,10.384569109249115,0.966882,10.441669109249116,0.997981,10.493069109249115L1.95073,12.160569109249115C1.979,12.211969109249114,2.02141,12.254869109249116,2.07229,12.283369109249115C2.12036,12.311969109249114,2.1769,12.329069109249115,2.23627,12.329069109249115L5.85501,12.329069109249115L6.71163,13.828169109249115C6.771,13.930969109249116,6.87843,13.993769109249115,6.99717,13.993769109249115L8.90267,13.993769109249115C8.96204,13.993769109249115,9.01858,13.979469109249115,9.06664,13.948069109249115C9.1147,13.919569109249116,9.15711,13.876669109249114,9.18821,13.825269109249115L10.9976,10.658669109249114L12.7137,10.658669109249114C12.773,10.658669109249114,12.8296,10.641569109249115,12.8776,10.612969109249114C12.9257,10.584469109249115,12.9681,10.541569109249115,12.9992,10.490169109249114L13.9519,8.822649109249115C13.983,8.771249109249116,13.9972,8.714149109249115,13.9972,8.657039109249116C13.9972,8.599929109249114,13.983,8.542819109249114,13.9519,8.491419109249115L12.332,5.658869109249115L12.1426,5.324789109249115L12.9992,3.825709109249115C13.0275,3.774309109249115,13.0444,3.717199109249115,13.0444,3.660099109249115C13.0444,3.602989109249115,13.0303,3.545879109249115,12.9992,3.494479109249115L12.0464,1.826929109249115C12.0182,1.775539109249115,11.9758,1.732709109249115,11.9249,1.704149109249115C11.8768,1.675599109249115,11.8174,1.658469109249115,11.7609,1.658469109249115L8.13934,1.658469109249115L7.28271,0.159382109249115C7.22334,0.056587809249114995,7.11591,-0.00623089075088501,6.99717,-0.00623089075088501L5.09168,-0.00623089075088501L5.09451,-0.0005217207508850094Z" fill="#FFFFFF" fill-opacity="1"/></g></mask><linearGradient x1="0.8695938587188721" y1="0.7598085999488831" x2="0.1316230297088623" y2="0.7598085999488831" id="master_svgm_2_17152"><stop offset="0%" stop-color="#A7A5F6" stop-opacity="1"/><stop offset="9.000000357627869%" stop-color="#908DF3" stop-opacity="1"/><stop offset="20.999999344348907%" stop-color="#7672EF" stop-opacity="1"/><stop offset="31.999999284744263%" stop-color="#6661ED" stop-opacity="1"/><stop offset="40.00000059604645%" stop-color="#615CED" stop-opacity="1"/><stop offset="100%" stop-color="#615CED" stop-opacity="1"/></linearGradient></defs><g clip-path="url(#master_svg0_41_118398/15_028743)"><g><g><g><path d="M6.99992140625,13.933758171749115C6.90662140625,13.933758171749115,6.81898140625,13.882358171749114,6.77092140625,13.799458171749116L6.75113140625,13.765258171749116L5.89450140625,12.266158171749115L2.23618140625,12.266158171749115C2.19095140625,12.266158171749115,2.14572140625,12.254758171749115,2.10331140625,12.229058171749115C2.06373140625,12.206158171749115,2.02980140625,12.171958171749115,2.00719140625,12.131958171749115L1.05444040625,10.464358171749115C1.03182340625,10.424458171749116,1.0176874062499999,10.378758171749116,1.0176874062499999,10.330158171749115C1.0176874062499999,10.281658171749115,1.02899640625,10.238858171749115,1.05444040625,10.195958171749115L1.93085140625,8.662648171749115L0.10169420625,5.464608171749115C0.07907710625,5.424638171749115,0.06494140625,5.378948171749115,0.06494140625,5.330408171749115C0.06494140625,5.281868171749115,0.07625000625,5.236178171749115,0.10169420625,5.196198171749115L1.05444040625,3.528648171749115C1.07706140625,3.488678171749115,1.11098140625,3.454408171749115,1.15056140625,3.431568171749115C1.19014140625,3.408728171749115,1.23538140625,3.394448171749115,1.28344140625,3.394448171749115L3.03626140625,3.394448171749115L4.86542140625,0.19926217174911498C4.88804140625,0.159286171749115,4.92197140625,0.125021471749115,4.96155140625,0.102178271749115C5.00113140625,0.07933517174911499,5.04636140625,0.06505817174911499,5.09442140625,0.06505817174911499L6.99992140625,0.06505817174911499C7.09321140625,0.06505817174911499,7.18085140625,0.11645527174911499,7.22891140625,0.19926217174911498L8.10533140625,1.732608171749115L11.76364140625,1.732608171749115C11.80884140625,1.732608171749115,11.85694140625,1.744028171749115,11.89654140625,1.769728171749115C11.93614140625,1.792568171749115,11.97004140625,1.826838171749115,11.99264140625,1.866808171749115L12.94544140625,3.534358171749115C12.96804140625,3.574338171749115,12.98214140625,3.620028171749115,12.98214140625,3.668568171749115C12.98214140625,3.717108171749115,12.97084140625,3.759938171749115,12.94544140625,3.802768171749115L12.06894140625,5.336118171749115L13.89814140625,8.537018171749114C13.92074140625,8.576988171749115,13.93494140625,8.622678171749115,13.93494140625,8.671218171749114C13.93494140625,8.719758171749115,13.92354140625,8.765448171749116,13.90094140625,8.805418171749116L12.94824140625,10.472958171749115C12.92564140625,10.512958171749116,12.89164140625,10.547258171749116,12.85214140625,10.570058171749116C12.81254140625,10.592858171749114,12.76724140625,10.604358171749116,12.71924140625,10.607158171749115L10.96644140625,10.607158171749115L9.13723140625,13.808058171749115C9.11462140625,13.848058171749114,9.08069140625,13.882358171749114,9.04111140625,13.905158171749115C9.00153140625,13.927958171749115,8.95630140625,13.942258171749115,8.90824140625,13.942258171749115L7.00274140625,13.942258171749115L6.99992140625,13.933758171749115Z" fill="#FFFFFF" fill-opacity="1"/></g><g mask="url(#master_svg1_41_118398/15_028772)"><g><g mask="url(#master_svg2_41_118398/15_028767)"><g><g mask="url(#master_svg3_41_118398/15_028771)"><g transform="matrix(0.8638590574264526,-0.5037336945533752,0.4962756037712097,0.8681650161743164,-0.6305031681791498,0.782812031064168)"><rect x="1.139693260192871" y="1.5831164717674255" width="10.670876502990723" height="9.072016716003418" rx="0" fill="url(#master_svg4_2_17184)" fill-opacity="1"/></g></g></g></g></g></g><g mask="url(#master_svg5_41_118398/15_028754)"><g><g mask="url(#master_svg6_41_118398/15_028749)"><g><g mask="url(#master_svg7_41_118398/15_028752)"><g transform="matrix(0.4962756037712097,-0.8681650161743164,0.8638589382171631,0.5037336349487305,-9.720620171555154,2.9338075871439173)"><rect x="-2.289727210998535" y="9.917393147945404" width="10.031915664672852" height="9.015686988830566" rx="0" fill="url(#master_svg8_2_17211)" fill-opacity="1"/></g></g></g></g></g></g><g mask="url(#master_svg9_41_118398/15_028756)"><g><g mask="url(#master_svga_41_118398/15_028763)"><g><g mask="url(#master_svgb_41_118398/15_028761)"><g><rect x="6.0472564697265625" y="5.498526036739349" width="7.621971130371094" height="8.16642951965332" rx="0" fill="url(#master_svgc_2_17197)" fill-opacity="1"/></g></g></g></g></g></g><g><g mask="url(#master_svgd_41_118398/15_028775)"><g transform="matrix(0.8638589382171631,-0.5037336945533752,0.49627557396888733,0.8681650161743164,-2.553825930779089,-2.5617665938574987)"><rect x="-6.00146484375" y="3.499628484249115" width="19.10271453857422" height="19.146656036376953" rx="0" fill="url(#master_svge_2_17161)" fill-opacity="1"/></g></g></g><g mask="url(#master_svgf_41_118398/15_028787)"><g><g mask="url(#master_svgg_41_118398/15_028794)"><g><g mask="url(#master_svgh_41_118398/15_028793)"><g><rect x="0" y="-0.00037151575088500977" width="14.000000953674316" height="14" rx="0" fill="url(#master_svgi_2_17175)" fill-opacity="1"/></g></g></g></g></g></g><g mask="url(#master_svgj_41_118398/15_028778)"><g><g mask="url(#master_svgk_41_118398/15_028785)"><g><g mask="url(#master_svgl_41_118398/15_028784)"><g transform="matrix(0.49627557396888733,-0.8681650161743164,0.8638589382171631,0.5037336945533752,-12.092790429457196,0.0011978306952507012)"><rect x="-6.00048828125" y="10.499628484249115" width="19.146656036376953" height="19.10271453857422" rx="0" fill="url(#master_svgm_2_17152)" fill-opacity="1"/></g></g></g></g></g></g></g></g></g></svg>