<svg xmlns="http://www.w3.org/2000/svg" xmlns:xlink="http://www.w3.org/1999/xlink" fill="none" version="1.1" width="20" height="20" viewBox="0 0 20 20"><defs><clipPath id="master_svg0_41_068003/15_526030"><rect x="0" y="0" width="20" height="20" rx="0"/></clipPath></defs><g clip-path="url(#master_svg0_41_068003/15_526030)"><g><path d="M2,17C2,18.6569,3.34315,20,5,20L15,20C16.6569,20,18,18.6569,18,17L18,5L13,0L5,0C3.34315,0,2,1.34315,2,3L2,17Z" fill="#44C161" fill-opacity="1"/></g><g><path d="M13,0L13,3C13,4.10457,13.895431,5,15,5L18,5L13,0Z" fill="#FFFFFF" fill-opacity="0.4000000059604645"/></g><g><path d="M9.998004938659669,12.959100027160645L7.6079349386596675,15.807480027160643Q7.569554938659667,15.853220027160646,7.522984938659668,15.890600027160644Q7.476415938659668,15.927970027160644,7.423451938659668,15.955540027160644Q7.370486938659668,15.983110027160645,7.313160938659668,15.999820027160645Q7.255834938659668,16.016530027160645,7.196350938659668,16.021740027160646Q7.136865938659668,16.026940027160645,7.077509938659668,16.020440027160646Q7.018152938659668,16.013940027160643,6.961204938659668,15.995980027160645Q6.9042569386596675,15.978030027160646,6.851906938659668,15.949310027160646Q6.799555938659668,15.920590027160644,6.753813938659668,15.882210027160644Q6.708072938659668,15.843820027160644,6.670697938659668,15.797260027160645Q6.633322638659668,15.750690027160644,6.605750938659668,15.697720027160646Q6.578179138659668,15.644760027160643,6.561470038659668,15.587430027160645Q6.544760988659668,15.530110027160646,6.539556738659668,15.470620027160646Q6.534352488659668,15.411140027160645,6.540853048659668,15.351780027160643Q6.547353638659668,15.292420027160645,6.565309138659668,15.235480027160644Q6.583264738659668,15.178530027160644,6.611985238659668,15.126180027160643Q6.640705938659668,15.073830027160644,6.679087938659668,15.028090027160644L9.206584938659669,12.015930027160644L6.677839938659668,9.002280027160644Q6.600324038659668,8.909906027160645,6.564061038659668,8.794894027160645Q6.527798008659668,8.679883027160644,6.538308358659668,8.559749027160645Q6.548818738659668,8.439614027160644,6.604502338659668,8.332647027160645Q6.660185938659668,8.225680027160644,6.752565938659668,8.148164027160645Q6.7983069386596675,8.109783027160644,6.850657938659668,8.081061927160645Q6.903008938659668,8.052341327160644,6.959955938659668,8.034385727160645Q7.016903938659668,8.016430127160644,7.076260938659668,8.009929527160644Q7.135617938659668,8.003428907160645,7.195101938659668,8.008633107160644Q7.254585938659668,8.013837327160644,7.311911938659668,8.030546327160645Q7.369237938659668,8.047255327160645,7.422202938659668,8.074827027160644Q7.475167938659668,8.102399027160644,7.521735938659668,8.139774027160644Q7.568304938659668,8.177148027160644,7.606684938659668,8.222890027160645L9.998004938659669,11.072750027160644L12.394644938659667,8.216543027160645Q12.433024938659667,8.170801027160644,12.479594938659668,8.133426027160645Q12.526164938659669,8.096051627160644,12.579124938659668,8.068479827160644Q12.632094938659668,8.040908127160645,12.689424938659668,8.024199127160644Q12.746744938659667,8.007490057160645,12.806234938659667,8.002285837160645Q12.865714938659668,7.997081617160645,12.925074938659668,8.003582207160644Q12.984424938659668,8.010082827160645,13.041374938659668,8.028038427160645Q13.098324938659669,8.045994027160644,13.150674938659668,8.074714527160644Q13.203024938659668,8.103435027160645,13.248764938659669,8.141817027160645Q13.294504938659667,8.180199027160645,13.331884938659668,8.226767027160644Q13.369254938659669,8.273335027160645,13.39683493865967,8.326300027160645Q13.424404938659668,8.379264027160644,13.441114938659668,8.436590027160644Q13.457824938659668,8.493917027160645,13.463024938659668,8.553401027160644Q13.468224938659668,8.612885027160644,13.461724938659668,8.672242027160644Q13.455224938659669,8.731598027160645,13.437274938659668,8.788546027160644Q13.419314938659667,8.845494027160644,13.390594938659667,8.897845027160644Q13.361874938659668,8.950196027160645,13.323494938659667,8.995937027160645L10.789424938659668,12.015930027160644L13.322244938659669,15.034430027160646Q13.360634938659668,15.080170027160644,13.389354938659668,15.132520027160645Q13.418074938659668,15.184870027160645,13.436024938659667,15.241820027160644Q13.45398493865967,15.298770027160645,13.460484938659668,15.358130027160644Q13.466984938659667,15.417480027160645,13.46177493865967,15.476970027160645Q13.456574938659667,15.536450027160644,13.439864938659667,15.593780027160644Q13.423154938659668,15.651100027160645,13.395584938659667,15.704070027160643Q13.368014938659668,15.757030027160646,13.330634938659667,15.803600027160645Q13.293264938659668,15.850170027160644,13.247524938659668,15.888550027160644Q13.155144938659667,15.966070027160644,13.04013493865967,16.002330027160646Q12.925114938659668,16.038590027160645,12.804984938659668,16.028080027160645Q12.684854938659669,16.017570027160644,12.577884938659668,15.961890027160646Q12.470914938659668,15.906210027160643,12.393404938659668,15.813830027160645L9.998004938659669,12.959100027160645Z" fill-rule="evenodd" fill="#FFFFFF" fill-opacity="1"/></g></g></svg>