<svg xmlns="http://www.w3.org/2000/svg" xmlns:xlink="http://www.w3.org/1999/xlink" fill="none" version="1.1" width="16" height="16" viewBox="0 0 16 16"><g><g><ellipse cx="8" cy="8" rx="8" ry="8" fill="#FFFFFF" fill-opacity="1"/><ellipse cx="8" cy="8" rx="7.5" ry="7.5" fill-opacity="0" stroke-opacity="0.6499999761581421" stroke="#C3C5D9" fill="none" stroke-width="1"/></g><g transform="matrix(0,1,-1,0,11,-3)"><path d="M14.14743,4.853384L11.35721,7.64628C11.162040000000001,7.84163,10.84546,7.84178,10.6501,7.64662L7.854539,4.853722C7.539324,4.538809,7.762355,4,8.20792,4L13.79371,4C14.239049999999999,4,14.46218,4.538333,14.14743,4.853384" fill="#878AAB" fill-opacity="1"/></g><g transform="matrix(0,1,1,0,5,-5)"><path d="M16.14743,4.853384L13.35721,7.64628C13.162040000000001,7.84163,12.84546,7.84178,12.6501,7.64662L9.854539,4.853722C9.539324,4.538809,9.762355,4,10.20792,4L15.79371,4C16.23905,4,16.46218,4.538333,16.14743,4.853384" fill="#878AAB" fill-opacity="1"/></g></g></svg>