<svg xmlns="http://www.w3.org/2000/svg" xmlns:xlink="http://www.w3.org/1999/xlink" fill="none" version="1.1" width="20" height="20" viewBox="0 0 20 20"><defs><clipPath id="master_svg0_41_154279"><rect x="0" y="0" width="20" height="20" rx="0"/></clipPath></defs><g clip-path="url(#master_svg0_41_154279)"><g><g><path d="M2,3L2,17C2,18.6569,3.34315,20,5,20L15,20C16.6569,20,18,18.6569,18,17L18,5L13,0L5,0C3.34315,0,2,1.34315,2,3Z" fill="#F04B57" fill-opacity="1"/></g><g><path d="M13,0L13,3C13,4.10457,13.895431,5,15,5L18,5L13,0Z" fill="#FFFFFF" fill-opacity="0.4000000059604645"/></g></g><g><path d="M13.182625258789063,16.38626C12.340265258789064,16.38626,11.584615258789063,14.94062,11.187235258789062,14.00073C10.518715258789062,13.721499999999999,9.781545258789063,13.46097,9.065415258789063,13.29246C8.438965258789063,13.705770000000001,7.372855258789063,14.324580000000001,6.554085258789063,14.324580000000001C6.0462102587890625,14.324580000000001,5.680072258789062,14.06915,5.545771558789062,13.62417C5.443133658789063,13.258040000000001,5.530046358789063,13.00537,5.640547258789063,12.86852C5.856447258789062,12.57357,6.301424258789062,12.42354,6.9674052587890625,12.42354C7.507155258789062,12.42354,8.191405258789063,12.51832,8.954925258789062,12.70256C9.447285258789062,12.352360000000001,9.947295258789062,11.946909999999999,10.392275258789063,11.51765C10.194645258789063,10.58031,9.978955258789062,9.06115,10.526575258789062,8.360532C10.797725258789063,8.0262682,11.210825258789063,7.9155555,11.711055258789063,8.0657936C12.258665258789062,8.223681,12.466705258789062,8.558158,12.529815258789062,8.821446C12.761445258789063,9.7352,11.711055258789063,10.96728,11.003005258789063,11.69148C11.160885258789062,12.31814,11.368925258789062,12.97902,11.621595258789062,13.58465C12.637765258789063,14.03749,13.846045258789063,14.7143,13.982895258789062,15.45147C14.038145258789063,15.70689,13.959315258789063,15.94383,13.751275258789063,16.151870000000002C13.572345258789062,16.29934,13.382795258789063,16.38626,13.182625258789063,16.38626ZM12.425265258789063,14.7925C12.610565258789062,15.20476,12.787365258789062,15.399619999999999,12.880445258789063,15.399619999999999C12.894895258789063,15.399619999999999,12.915085258789063,15.393239999999999,12.943985258789063,15.36796C12.978405258789063,15.33013,12.978405258789063,15.30484,12.972665258789062,15.28168C12.953545258789063,15.17331,12.796925258789063,14.99544,12.425265258789063,14.7925ZM7.076415258789062,13.12289C6.7799752587890625,13.12289,6.698585258789063,13.1945,6.673725258789062,13.22786C6.666715258789063,13.238489999999999,6.645465258789063,13.27079,6.666715258789063,13.3543C6.684345258789063,13.42591,6.733865258789063,13.5022,6.8874952587890625,13.5022C7.079815258789063,13.5022,7.3586152587890625,13.393830000000001,7.682035258789062,13.199169999999999C7.450415258789063,13.147960000000001,7.246415258789062,13.12267,7.076415258789062,13.12267L7.076415258789062,13.12289ZM9.977685258789062,12.75441C10.157485258789062,12.8055,10.334765258789062,12.86507,10.508935258789062,12.93291C10.448715258789061,12.77148,10.397285258789061,12.6069,10.354875258789063,12.439910000000001C10.231195258789063,12.54722,10.105605258789062,12.6522,9.977685258789062,12.75441ZM11.229315258789063,9.19524C11.172775258789063,9.19402,11.118745258789062,9.21857,11.082475258789064,9.26196C10.965385258789063,9.40965,10.951995258789061,9.78153,11.042525258789063,10.25774C11.386355258789063,9.88926,11.572925258789063,9.55054,11.526605258789061,9.36949C11.520015258789062,9.34292,11.500035258789062,9.26196,11.339815258789063,9.215209999999999C11.304185258789062,9.20306,11.266935258789061,9.19633,11.229315258789063,9.19524Z" fill="#FFFFFF" fill-opacity="1"/></g></g></svg>