<svg xmlns="http://www.w3.org/2000/svg" xmlns:xlink="http://www.w3.org/1999/xlink" fill="none" version="1.1" width="20" height="20" viewBox="0 0 20 20"><defs><clipPath id="master_svg0_41_070523/15_526030"><rect x="0" y="0" width="20" height="20" rx="0"/></clipPath></defs><g clip-path="url(#master_svg0_41_070523/15_526030)"><g><g><path d="M2,3L2,17C2,18.6569,3.34315,20,5,20L15,20C16.6569,20,18,18.6569,18,17L18,5L13,0L5,0C3.34315,0,2,1.34315,2,3Z" fill="#FF5B3B" fill-opacity="1"/></g><g><path d="M13,0L13,3C13,4.10457,13.895431,5,15,5L18,5L13,0Z" fill="#FFFFFF" fill-opacity="0.4000000059604645"/></g></g><g><path d="M12.90095,9.62729C13.04475,9.77419,13.12089,9.98585,13.12089,10.29972C13.12089,10.61359,13.04475,10.82525,12.90095,10.97215C12.74743,11.1294,12.48715,11.24609,12.10293,11.3065L6.3965689999999995,11.3065C6.039479,11.3065,5.75,11.59598,5.75,11.95307L5.75,14.85343C5.75,15.210519999999999,6.039479,15.5,6.3965689999999995,15.5C6.75366,15.5,7.04314,15.210519999999999,7.04314,14.85343L7.04314,12.59985L12.150929999999999,12.59985C12.181560000000001,12.59985,12.21218,12.59778,12.24238,12.593440000000001C13.623660000000001,12.396049999999999,14.41403,11.58769,14.41403,10.29993C14.41403,9.01237,13.623660000000001,8.204005,12.24238,8.00662102C12.2121,8.00225226,12.18154,8.0000397792,12.150929999999999,8L6.3965689999999995,8C6.039479,8,5.75,8.289479,5.75,8.646569C5.75,9.00366,6.039479,9.29314,6.3965689999999995,9.29314L12.10293,9.29314C12.48715,9.35355,12.74743,9.47025,12.90095,9.62749L12.90095,9.62729Z" fill="#FFFFFF" fill-opacity="1"/></g></g></svg>