<svg xmlns="http://www.w3.org/2000/svg" xmlns:xlink="http://www.w3.org/1999/xlink" fill="none" version="1.1" width="160" height="160" viewBox="0 0 160 160">
  <defs>
    <clipPath id="master_svg0_214_10378">
      <rect x="0" y="0" width="160" height="160" rx="0"/>
    </clipPath>
    <linearGradient x1="0.8517822027206421" y1="0.45879092812538147" x2="0.11764702373031187" y2="0.3685772614773857" id="master_svg1_71_13093">
      <stop offset="0%" stop-color="#695AE4" stop-opacity="1"/>
      <stop offset="41.428571939468384%" stop-color="#806CFB" stop-opacity="1"/>
    </linearGradient>
    <linearGradient x1="0.8508383631706238" y1="1" x2="0.06807116674900371" y2="-0.0021543987462911696" id="master_svg2_71_18930">
      <stop offset="0%" stop-color="#6460D9" stop-opacity="1"/>
      <stop offset="55.714285373687744%" stop-color="#8D77FE" stop-opacity="1"/>
    </linearGradient>
  </defs>
  <g clip-path="url(#master_svg0_214_10378)">
    <g>
      <g>
        <path d="M83.69037453308106,73.98021003417969C83.69037453308106,76.33811003417969,85.59937453308106,78.2508100341797,87.95727453308106,78.25521003417968L88.75487453308105,78.25521003417968L88.76297453308106,78.25521003417968L106.82727453308105,78.25521003417968L106.83077453308105,78.25521003417968C113.43377453308105,78.2645100341797,118.78367453308105,83.62011003417969,118.78367453308105,90.2252100341797L118.78367453308105,113.44811003417968L113.20057453308105,113.44811003417968L113.20057453308105,89.78401003417969C113.20057453308105,86.95071003417968,110.90377453308105,84.65401003417969,108.07057453308106,84.65401003417969L52.929474533081056,84.65401003417969C50.096264533081055,84.65401003417969,47.799484533081056,86.95071003417968,47.799484533081056,89.78401003417969L47.799484533081056,113.44811003417968L42.216474533081055,113.44811003417968L42.216474533081055,90.2252100341797C42.216474533081055,83.62391003417969,47.56026453308105,78.27061003417968,54.158074533081056,78.25531003417969L54.17277453308105,78.25531003417969L73.03477453308105,78.25521003417968C75.39577453308105,78.25521003417968,77.30977453308105,76.34131003417968,77.30977453308105,73.98021003417969L77.30977453308105,50.26091003417969L83.69037453308106,50.26091003417969L83.69037453308106,73.98021003417969Z" fill-rule="evenodd" fill="url(#master_svg1_71_13093)" fill-opacity="1"/>
      </g>
      <g>
        <path d="M98.04670326538086,47.46145361328125Q98.04670326538086,47.883653613281254,98.02600326538087,48.30525361328125Q98.00540326538086,48.72695361328125,97.96410326538086,49.14705361328125Q97.92290326538085,49.56715361328125,97.86110326538086,49.98475361328125Q97.79930326538086,50.40235361328125,97.71720326538086,50.81635361328125Q97.63510326538085,51.23035361328125,97.53280326538086,51.63985361328125Q97.43050326538085,52.049353613281255,97.30830326538086,52.45335361328125Q97.18610326538086,52.85735361328125,97.04430326538086,53.25485361328125Q96.90250326538086,53.652253613281246,96.74140326538085,54.04235361328125Q96.58030326538086,54.43235361328125,96.40030326538086,54.81395361328125Q96.22030326538086,55.19555361328125,96.02190326538086,55.56785361328125Q95.82350326538085,55.940153613281254,95.60700326538085,56.30225361328125Q95.39060326538086,56.66435361328125,95.15680326538086,57.01535361328125Q94.92290326538085,57.36635361328125,94.67210326538085,57.70545361328125Q94.42140326538086,58.04455361328125,94.15430326538086,58.37085361328125Q93.88730326538087,58.69715361328125,93.60460326538086,59.009953613281255Q93.32190326538085,59.32275361328125,93.02420326538086,59.621253613281255Q92.72650326538086,59.91975361328125,92.41460326538086,60.20325361328125Q92.10270326538085,60.48675361328125,91.77730326538085,60.754553613281246Q91.45190326538086,61.022353613281254,91.11380326538085,61.27385361328125Q90.77570326538086,61.525353613281254,90.42570326538086,61.75985361328125Q90.07570326538087,61.99445361328125,89.71460326538086,62.21145361328125Q89.35350326538085,62.42845361328125,88.98230326538086,62.62745361328125Q88.61100326538086,62.82645361328125,88.23050326538086,63.00695361328125Q87.85000326538086,63.18745361328125,87.46100326538087,63.34905361328125Q87.07210326538086,63.51055361328125,86.67580326538086,63.65275361328125Q86.27940326538086,63.79495361328125,85.87660326538085,63.91755361328125Q85.47380326538087,64.04005361328126,85.06540326538087,64.14265361328125Q84.65710326538085,64.24525361328125,84.24420326538086,64.32755361328125Q83.83140326538086,64.40995361328126,83.41500326538086,64.47185361328124Q82.99860326538086,64.53385361328125,82.57960326538085,64.57525361328125Q82.16070326538086,64.61655361328124,81.74030326538086,64.63725361328125Q81.31980326538086,64.65805361328125,80.89890326538085,64.65805361328125Q80.47790326538086,64.65805361328125,80.05740326538086,64.63725361328125Q79.63700326538086,64.61655361328124,79.21810326538086,64.57525361328125Q78.79910326538086,64.53385361328125,78.38270326538085,64.47185361328124Q77.96630326538086,64.40995361328126,77.55350326538085,64.32755361328125Q77.14060326538086,64.24525361328125,76.73230326538086,64.14265361328125Q76.32390326538086,64.04005361328126,75.92110326538086,63.91755361328125Q75.51830326538087,63.79495361328125,75.12190326538087,63.65275361328125Q74.72560326538085,63.51055361328125,74.33670326538086,63.34905361328125Q73.94770326538085,63.18745361328125,73.56720326538085,63.00695361328125Q73.18666326538086,62.82645361328125,72.81541326538085,62.62745361328125Q72.44416326538087,62.42845361328125,72.08309326538085,62.21145361328125Q71.72203326538086,61.99445361328125,71.37201326538086,61.75985361328125Q71.02200326538086,61.525353613281254,70.68389326538086,61.27385361328125Q70.34577326538086,61.022353613281254,70.02037326538085,60.754553613281246Q69.69497326538087,60.48675361328125,69.38306326538086,60.20325361328125Q69.07115326538086,59.91975361328125,68.77349326538086,59.621253613281255Q68.47583326538086,59.32275361328125,68.19313326538087,59.009953613281255Q67.91043326538086,58.69715361328125,67.64338326538086,58.37085361328125Q67.37633326538086,58.04455361328125,67.12557326538086,57.70545361328125Q66.87480326538086,57.36635361328125,66.64093326538087,57.01535361328125Q66.40706326538086,56.66435361328125,66.19065326538086,56.30225361328125Q65.97423326538086,55.940153613281254,65.77580326538086,55.56785361328125Q65.57736326538085,55.19555361328125,65.39738326538085,54.81395361328125Q65.21740326538085,54.43235361328125,65.05630326538086,54.04235361328125Q64.89521326538086,53.652253613281246,64.75339326538086,53.25485361328125Q64.61158126538086,52.85735361328125,64.48938426538086,52.45335361328125Q64.36718726538086,52.049353613281255,64.26490326538087,51.63985361328125Q64.16261926538085,51.23035361328125,64.08049426538086,50.81635361328125Q63.998370265380856,50.40235361328125,63.93660326538086,49.98475361328125Q63.87483526538086,49.56715361328125,63.83357486538086,49.14705361328125Q63.792313965380856,48.72695361328125,63.77165856538086,48.30525361328125Q63.75100326538086,47.883653613281254,63.75100326538086,47.46145361328125Q63.75100326538086,47.03935361328125,63.77165856538086,46.61765361328125Q63.792313965380856,46.19605361328125,63.83357486538086,45.775953613281246Q63.87483526538086,45.35585361328125,63.93660326538086,44.93825361328125Q63.998370265380856,44.52065361328125,64.08049426538086,44.10665361328125Q64.16261926538085,43.69255361328125,64.26490326538087,43.283053613281254Q64.36718726538086,42.873553613281246,64.48938426538086,42.46955361328125Q64.61158126538086,42.06565361328125,64.75339326538086,41.66815361328125Q64.89521326538086,41.27065361328125,65.05630326538086,40.880653613281254Q65.21740326538085,40.49065361328125,65.39738326538085,40.10902361328125Q65.57736326538085,39.727403613281254,65.77580326538086,39.35509361328125Q65.97423326538086,38.98279361328125,66.19065326538086,38.62070361328125Q66.40706326538086,38.25861361328125,66.64093326538087,37.90760361328125Q66.87480326538086,37.55659361328125,67.12557326538086,37.21752361328125Q67.37633326538086,36.87844361328125,67.64338326538086,36.55212361328125Q67.91043326538086,36.22579361328125,68.19313326538087,35.91300361328125Q68.47583326538086,35.60020361328125,68.77349326538086,35.30170361328125Q69.07115326538086,35.00319361328125,69.38306326538086,34.71969361328125Q69.69497326538087,34.43619361328125,70.02037326538085,34.16838361328125Q70.34577326538086,33.90057361328125,70.68389326538086,33.64910361328125Q71.02200326538086,33.39762361328125,71.37202326538086,33.16309361328125Q71.72203326538086,32.92855361328125,72.08309326538085,32.71152361328125Q72.44416326538087,32.49450361328125,72.81541326538085,32.29549361328125Q73.18666326538086,32.09649361328125,73.56720326538085,31.91600361328125Q73.94770326538085,31.73551361328125,74.33670326538086,31.57396361328125Q74.72560326538085,31.41241361328125,75.12190326538087,31.27019361328125Q75.51830326538087,31.12797461328125,75.92110326538086,31.00543061328125Q76.32390326538086,30.88288661328125,76.73230326538086,30.78031161328125Q77.14060326538086,30.67773761328125,77.55350326538085,30.59537961328125Q77.96630326538086,30.51302261328125,78.38270326538085,30.45107961328125Q78.79910326538086,30.38913761328125,79.21810326538086,30.34775961328125Q79.63700326538086,30.30638151328125,80.05740326538086,30.28566761328125Q80.47790326538086,30.26495361328125,80.89890326538085,30.26495361328125Q81.31980326538086,30.26495361328125,81.74030326538086,30.28566761328125Q82.16070326538086,30.30638151328125,82.57960326538085,30.34775961328125Q82.99860326538086,30.38913761328125,83.41500326538086,30.45107961328125Q83.83140326538086,30.51302261328125,84.24420326538086,30.59537961328125Q84.65710326538085,30.67773761328125,85.06540326538087,30.78031161328125Q85.47380326538087,30.88288661328125,85.87660326538085,31.00543061328125Q86.27940326538086,31.12797461328125,86.67580326538086,31.27019361328125Q87.07210326538086,31.41241361328125,87.46100326538087,31.57396361328125Q87.85000326538086,31.73551361328125,88.23050326538086,31.91600361328125Q88.61100326538086,32.09649361328125,88.98230326538086,32.29549361328125Q89.35350326538085,32.49450361328125,89.71460326538086,32.71152361328125Q90.07570326538087,32.92855361328125,90.42570326538086,33.16309361328125Q90.77570326538086,33.39762361328125,91.11380326538085,33.64910361328125Q91.45190326538086,33.90057361328125,91.77730326538085,34.16838361328125Q92.10270326538085,34.43619361328125,92.41460326538086,34.71969361328125Q92.72650326538086,35.00319361328125,93.02420326538086,35.30170361328125Q93.32190326538085,35.60020361328125,93.60460326538086,35.91300361328125Q93.88730326538087,36.22579361328125,94.15430326538086,36.55212361328125Q94.42140326538086,36.87844361328125,94.67210326538085,37.21752361328125Q94.92290326538085,37.55659361328125,95.15680326538086,37.90760361328125Q95.39060326538086,38.25861361328125,95.60700326538085,38.62070361328125Q95.82350326538085,38.98279361328125,96.02190326538086,39.35509361328125Q96.22030326538086,39.727403613281254,96.40030326538086,40.10902361328125Q96.58030326538086,40.49065361328125,96.74140326538085,40.880653613281254Q96.90250326538086,41.27065361328125,97.04430326538086,41.66815361328125Q97.18610326538086,42.06565361328125,97.30830326538086,42.46955361328125Q97.43050326538085,42.873553613281246,97.53280326538086,43.283053613281254Q97.63510326538085,43.69255361328125,97.71720326538086,44.10665361328125Q97.79930326538086,44.52065361328125,97.86110326538086,44.93825361328125Q97.92290326538085,45.35585361328125,97.96410326538086,45.775953613281246Q98.00540326538086,46.19605361328125,98.02600326538087,46.61765361328125Q98.04670326538086,47.03935361328125,98.04670326538086,47.46145361328125Z" fill="url(#master_svg2_71_18930)" fill-opacity="1"/>
      </g>
      <g>
        <path d="M61.35826103515625,110.53836553955078Q61.35826103515625,110.96056553955079,61.33756103515625,111.38216553955078Q61.31696103515625,111.80386553955078,61.27566103515625,112.22396553955079Q61.23446103515625,112.64406553955078,61.17266103515625,113.06166553955077Q61.11086103515625,113.47926553955078,61.02876103515625,113.89326553955078Q60.94666103515625,114.30726553955078,60.84436103515625,114.71676553955078Q60.74206103515625,115.12626553955079,60.61986103515625,115.53026553955078Q60.49766103515625,115.93426553955078,60.35586103515625,116.33176553955079Q60.21406103515625,116.72916553955078,60.05296103515625,117.11926553955078Q59.89186103515625,117.50926553955078,59.71186103515625,117.89086553955079Q59.53186103515625,118.27246553955078,59.33346103515625,118.64476553955078Q59.13506103515625,119.01706553955079,58.91856103515625,119.37916553955078Q58.70216103515625,119.74126553955078,58.46836103515625,120.09226553955078Q58.23446103515625,120.44326553955078,57.983661035156246,120.78236553955078Q57.73296103515625,121.12146553955078,57.46586103515625,121.44776553955077Q57.19886103515625,121.77406553955078,56.91616103515625,122.08686553955079Q56.63346103515625,122.39966553955078,56.33576103515625,122.69816553955079Q56.03806103515625,122.99666553955078,55.72616103515625,123.28016553955078Q55.41426103515625,123.56366553955078,55.08886103515625,123.83146553955078Q54.763461035156254,124.09926553955079,54.42536103515625,124.35076553955078Q54.087261035156246,124.60226553955079,53.73726103515625,124.83676553955078Q53.38726103515625,125.07136553955078,53.02616103515625,125.28836553955078Q52.66506103515625,125.50536553955078,52.293861035156255,125.70436553955078Q51.92256103515625,125.90336553955078,51.54206103515625,126.08386553955077Q51.161561035156254,126.26436553955078,50.77256103515625,126.42596553955079Q50.38366103515625,126.58746553955078,49.987361035156255,126.72966553955078Q49.590961035156255,126.87186553955078,49.18816103515625,126.99446553955079Q48.78536103515625,127.11696553955079,48.37696103515625,127.21956553955079Q47.968661035156245,127.32216553955078,47.55576103515625,127.40446553955078Q47.14296103515625,127.48686553955079,46.72656103515625,127.54876553955077Q46.31016103515625,127.61076553955078,45.89116103515625,127.65216553955078Q45.47226103515625,127.69346553955077,45.05186103515625,127.71416553955078Q44.631361035156246,127.73496553955079,44.21046103515625,127.73496553955079Q43.78946103515625,127.73496553955079,43.36896103515625,127.71416553955078Q42.948561035156246,127.69346553955077,42.52966103515625,127.65216553955078Q42.11066103515625,127.61076553955078,41.69426103515625,127.54876553955077Q41.27786103515625,127.48686553955079,40.86506103515625,127.40446553955078Q40.45216103515625,127.32216553955078,40.04386103515625,127.21956553955079Q39.635461035156254,127.11696553955079,39.23266103515625,126.99446553955079Q38.82986103515625,126.87186553955078,38.43346103515625,126.72966553955078Q38.03716103515625,126.58746553955078,37.64826103515625,126.42596553955079Q37.25926103515625,126.26436553955078,36.87876103515625,126.08386553955077Q36.49822103515625,125.90336553955078,36.12697103515625,125.70436553955078Q35.75572103515625,125.50536553955078,35.39465103515625,125.28836553955078Q35.03359103515625,125.07136553955078,34.68357103515625,124.83676553955078Q34.33356103515625,124.60226553955079,33.99545103515625,124.35076553955078Q33.65733103515625,124.09926553955079,33.33193103515625,123.83146553955078Q33.00653103515625,123.56366553955078,32.69462103515625,123.28016553955078Q32.38271103515625,122.99666553955078,32.08505103515625,122.69816553955079Q31.78739103515625,122.39966553955078,31.50469103515625,122.08686553955079Q31.22199103515625,121.77406553955078,30.95494103515625,121.44776553955077Q30.687891035156248,121.12146553955078,30.43713103515625,120.78236553955078Q30.18636103515625,120.44326553955078,29.95249103515625,120.09226553955078Q29.71862103515625,119.74126553955078,29.50221103515625,119.37916553955078Q29.28579103515625,119.01706553955079,29.08736103515625,118.64476553955078Q28.88892103515625,118.27246553955078,28.70894103515625,117.89086553955079Q28.52896103515625,117.50926553955078,28.36786103515625,117.11926553955078Q28.20677103515625,116.72916553955078,28.06495103515625,116.33176553955079Q27.92313903515625,115.93426553955078,27.80094203515625,115.53026553955078Q27.67874503515625,115.12626553955079,27.57646103515625,114.71676553955078Q27.47417703515625,114.30726553955078,27.39205203515625,113.89326553955078Q27.30992803515625,113.47926553955078,27.24816103515625,113.06166553955077Q27.18639303515625,112.64406553955078,27.14513263515625,112.22396553955079Q27.10387173515625,111.80386553955078,27.08321633515625,111.38216553955078Q27.06256103515625,110.96056553955079,27.06256103515625,110.53836553955078Q27.06256103515625,110.11626553955078,27.08321633515625,109.69456553955078Q27.10387173515625,109.27296553955078,27.14513263515625,108.85286553955078Q27.18639303515625,108.43276553955079,27.24816103515625,108.01516553955078Q27.30992803515625,107.59756553955079,27.39205203515625,107.18356553955078Q27.47417703515625,106.76946553955078,27.57646103515625,106.35996553955079Q27.67874503515625,105.95046553955078,27.80094203515625,105.54646553955078Q27.92313903515625,105.14256553955079,28.06495103515625,104.74506553955078Q28.20677103515625,104.34756553955079,28.36786103515625,103.95756553955079Q28.52896103515625,103.56756553955078,28.70894103515625,103.18593553955078Q28.88892103515625,102.80431553955079,29.08736103515625,102.43200553955079Q29.28579103515625,102.05970553955078,29.50221103515625,101.69761553955078Q29.71862103515625,101.33552553955079,29.95249103515625,100.98451553955078Q30.18636103515625,100.63350553955078,30.43713103515625,100.29443553955078Q30.687891035156248,99.95535553955078,30.95494103515625,99.62903553955078Q31.22199103515625,99.30270553955079,31.50469103515625,98.98991553955078Q31.78739103515625,98.67711553955078,32.08505103515625,98.37861553955078Q32.38271103515625,98.08010553955079,32.69462103515625,97.79660553955078Q33.00653103515625,97.51310553955078,33.33193103515625,97.24529553955078Q33.65733103515625,96.97748553955078,33.99545103515625,96.72601553955079Q34.33356103515625,96.47453553955079,34.68358103515625,96.24000553955078Q35.03359103515625,96.00546553955078,35.39465103515625,95.78843553955078Q35.75572103515625,95.57141553955078,36.12697103515625,95.37240553955078Q36.49822103515625,95.17340553955079,36.87876103515625,94.99291553955078Q37.25926103515625,94.81242553955079,37.64826103515625,94.65087553955078Q38.03716103515625,94.48932553955078,38.43346103515625,94.34710553955078Q38.82986103515625,94.20488653955078,39.23266103515625,94.08234253955078Q39.635461035156254,93.95979853955077,40.04386103515625,93.85722353955079Q40.45216103515625,93.75464953955078,40.86506103515625,93.67229153955078Q41.27786103515625,93.58993453955078,41.69426103515625,93.52799153955078Q42.11066103515625,93.46604953955078,42.52966103515625,93.42467153955079Q42.948561035156246,93.38329343955078,43.36896103515625,93.36257953955078Q43.78946103515625,93.34186553955078,44.21046103515625,93.34186553955078Q44.631361035156246,93.34186553955078,45.05186103515625,93.36257953955078Q45.47226103515625,93.38329343955078,45.89116103515625,93.42467153955079Q46.31016103515625,93.46604953955078,46.72656103515625,93.52799153955078Q47.14296103515625,93.58993453955078,47.55576103515625,93.67229153955078Q47.968661035156245,93.75464953955078,48.37696103515625,93.85722353955079Q48.78536103515625,93.95979853955077,49.18816103515625,94.08234253955078Q49.590961035156255,94.20488653955078,49.987361035156255,94.34710553955078Q50.38366103515625,94.48932553955078,50.77256103515625,94.65087553955078Q51.161561035156254,94.81242553955079,51.54206103515625,94.99291553955078Q51.92256103515625,95.17340553955079,52.293861035156255,95.37240553955078Q52.66506103515625,95.57141553955078,53.02616103515625,95.78843553955078Q53.38726103515625,96.00546553955078,53.73726103515625,96.24000553955078Q54.087261035156246,96.47453553955079,54.42536103515625,96.72601553955079Q54.763461035156254,96.97748553955078,55.08886103515625,97.24529553955078Q55.41426103515625,97.51310553955078,55.72616103515625,97.79660553955078Q56.03806103515625,98.08010553955079,56.33576103515625,98.37861553955078Q56.63346103515625,98.67711553955078,56.91616103515625,98.98991553955078Q57.19886103515625,99.30270553955079,57.46586103515625,99.62903553955078Q57.73296103515625,99.95535553955078,57.983661035156246,100.29443553955078Q58.23446103515625,100.63350553955078,58.46836103515625,100.98451553955078Q58.70216103515625,101.33552553955079,58.91856103515625,101.69761553955078Q59.13506103515625,102.05970553955078,59.33346103515625,102.43200553955079Q59.53186103515625,102.80431553955079,59.71186103515625,103.18593553955078Q59.89186103515625,103.56756553955078,60.05296103515625,103.95756553955079Q60.21406103515625,104.34756553955079,60.35586103515625,104.74506553955078Q60.49766103515625,105.14256553955079,60.61986103515625,105.54646553955078Q60.74206103515625,105.95046553955078,60.84436103515625,106.35996553955079Q60.94666103515625,106.76946553955078,61.02876103515625,107.18356553955078Q61.11086103515625,107.59756553955079,61.17266103515625,108.01516553955078Q61.23446103515625,108.43276553955079,61.27566103515625,108.85286553955078Q61.31696103515625,109.27296553955078,61.33756103515625,109.69456553955078Q61.35826103515625,110.11626553955078,61.35826103515625,110.53836553955078Z" fill="#C4C0FF" fill-opacity="1"/>
      </g>
      <g>
        <path d="M133.93755333251954,110.53836553955078Q133.93755333251954,110.96056553955079,133.91685333251954,111.38216553955078Q133.89625333251954,111.80386553955078,133.85495333251953,112.22396553955079Q133.81375333251952,112.64406553955078,133.75195333251952,113.06166553955077Q133.69015333251951,113.47926553955078,133.60805333251955,113.89326553955078Q133.52595333251952,114.30726553955078,133.42365333251954,114.71676553955078Q133.32135333251952,115.12626553955079,133.19915333251953,115.53026553955078Q133.07695333251954,115.93426553955078,132.93515333251952,116.33176553955079Q132.79335333251953,116.72916553955078,132.63225333251953,117.11926553955078Q132.47115333251952,117.50926553955078,132.2911533325195,117.89086553955079Q132.11115333251954,118.27246553955078,131.91275333251951,118.64476553955078Q131.71435333251952,119.01706553955079,131.49785333251953,119.37916553955078Q131.28145333251953,119.74126553955078,131.04765333251953,120.09226553955078Q130.81375333251952,120.44326553955078,130.56295333251953,120.78236553955078Q130.31225333251953,121.12146553955078,130.04515333251953,121.44776553955077Q129.77815333251954,121.77406553955078,129.49545333251953,122.08686553955079Q129.21275333251953,122.39966553955078,128.91505333251953,122.69816553955079Q128.61735333251954,122.99666553955078,128.30545333251953,123.28016553955078Q127.99355333251953,123.56366553955078,127.66815333251952,123.83146553955078Q127.34275333251954,124.09926553955079,127.00465333251952,124.35076553955078Q126.66655333251953,124.60226553955079,126.31655333251953,124.83676553955078Q125.96655333251954,125.07136553955078,125.60545333251953,125.28836553955078Q125.24435333251952,125.50536553955078,124.87315333251954,125.70436553955078Q124.50185333251953,125.90336553955078,124.12135333251953,126.08386553955077Q123.74085333251954,126.26436553955078,123.35185333251954,126.42596553955079Q122.96295333251953,126.58746553955078,122.56665333251954,126.72966553955078Q122.17025333251954,126.87186553955078,121.76745333251952,126.99446553955079Q121.36465333251954,127.11696553955079,120.95625333251954,127.21956553955079Q120.54795333251953,127.32216553955078,120.13505333251953,127.40446553955078Q119.72225333251953,127.48686553955079,119.30585333251953,127.54876553955077Q118.88945333251954,127.61076553955078,118.47045333251953,127.65216553955078Q118.05155333251953,127.69346553955077,117.63115333251953,127.71416553955078Q117.21065333251953,127.73496553955079,116.78975333251952,127.73496553955079Q116.36875333251953,127.73496553955079,115.94825333251953,127.71416553955078Q115.52785333251953,127.69346553955077,115.10895333251953,127.65216553955078Q114.68995333251954,127.61076553955078,114.27355333251953,127.54876553955077Q113.85715333251953,127.48686553955079,113.44435333251953,127.40446553955078Q113.03145333251953,127.32216553955078,112.62315333251954,127.21956553955079Q112.21475333251954,127.11696553955079,111.81195333251954,126.99446553955079Q111.40915333251954,126.87186553955078,111.01275333251954,126.72966553955078Q110.61645333251953,126.58746553955078,110.22755333251953,126.42596553955079Q109.83855333251952,126.26436553955078,109.45805333251953,126.08386553955077Q109.07751333251953,125.90336553955078,108.70626333251953,125.70436553955078Q108.33501333251954,125.50536553955078,107.97394333251953,125.28836553955078Q107.61288333251953,125.07136553955078,107.26286333251953,124.83676553955078Q106.91285333251953,124.60226553955079,106.57474333251953,124.35076553955078Q106.23662333251953,124.09926553955079,105.91122333251953,123.83146553955078Q105.58582333251954,123.56366553955078,105.27391333251953,123.28016553955078Q104.96200333251953,122.99666553955078,104.66434333251954,122.69816553955079Q104.36668333251953,122.39966553955078,104.08398333251954,122.08686553955079Q103.80128333251953,121.77406553955078,103.53423333251953,121.44776553955077Q103.26718333251954,121.12146553955078,103.01642333251954,120.78236553955078Q102.76565333251953,120.44326553955078,102.53178333251954,120.09226553955078Q102.29791333251953,119.74126553955078,102.08150333251953,119.37916553955078Q101.86508333251953,119.01706553955079,101.66665333251953,118.64476553955078Q101.46821333251953,118.27246553955078,101.28823333251952,117.89086553955079Q101.10825333251952,117.50926553955078,100.94715333251953,117.11926553955078Q100.78606333251953,116.72916553955078,100.64424333251954,116.33176553955079Q100.50243133251954,115.93426553955078,100.38023433251954,115.53026553955078Q100.25803733251954,115.12626553955079,100.15575333251954,114.71676553955078Q100.05346933251953,114.30726553955078,99.97134433251954,113.89326553955078Q99.88922033251953,113.47926553955078,99.82745333251953,113.06166553955077Q99.76568533251952,112.64406553955078,99.72442493251953,112.22396553955079Q99.68316403251953,111.80386553955078,99.66250863251953,111.38216553955078Q99.64185333251953,110.96056553955079,99.64185333251953,110.53836553955078Q99.64185333251953,110.11626553955078,99.66250863251953,109.69456553955078Q99.68316403251953,109.27296553955078,99.72442493251953,108.85286553955078Q99.76568533251952,108.43276553955079,99.82745333251953,108.01516553955078Q99.88922033251953,107.59756553955079,99.97134433251954,107.18356553955078Q100.05346933251953,106.76946553955078,100.15575333251954,106.35996553955079Q100.25803733251954,105.95046553955078,100.38023433251954,105.54646553955078Q100.50243133251954,105.14256553955079,100.64424333251954,104.74506553955078Q100.78606333251953,104.34756553955079,100.94715333251953,103.95756553955079Q101.10825333251952,103.56756553955078,101.28823333251952,103.18593553955078Q101.46821333251953,102.80431553955079,101.66665333251953,102.43200553955079Q101.86508333251953,102.05970553955078,102.08150333251953,101.69761553955078Q102.29791333251953,101.33552553955079,102.53178333251954,100.98451553955078Q102.76565333251953,100.63350553955078,103.01642333251954,100.29443553955078Q103.26718333251954,99.95535553955078,103.53423333251953,99.62903553955078Q103.80128333251953,99.30270553955079,104.08398333251954,98.98991553955078Q104.36668333251953,98.67711553955078,104.66434333251954,98.37861553955078Q104.96200333251953,98.08010553955079,105.27391333251953,97.79660553955078Q105.58582333251954,97.51310553955078,105.91122333251953,97.24529553955078Q106.23662333251953,96.97748553955078,106.57474333251953,96.72601553955079Q106.91285333251953,96.47453553955079,107.26287333251953,96.24000553955078Q107.61288333251953,96.00546553955078,107.97394333251953,95.78843553955078Q108.33501333251954,95.57141553955078,108.70626333251953,95.37240553955078Q109.07751333251953,95.17340553955079,109.45805333251953,94.99291553955078Q109.83855333251952,94.81242553955079,110.22755333251953,94.65087553955078Q110.61645333251953,94.48932553955078,111.01275333251954,94.34710553955078Q111.40915333251954,94.20488653955078,111.81195333251954,94.08234253955078Q112.21475333251954,93.95979853955077,112.62315333251954,93.85722353955079Q113.03145333251953,93.75464953955078,113.44435333251953,93.67229153955078Q113.85715333251953,93.58993453955078,114.27355333251953,93.52799153955078Q114.68995333251954,93.46604953955078,115.10895333251953,93.42467153955079Q115.52785333251953,93.38329343955078,115.94825333251953,93.36257953955078Q116.36875333251953,93.34186553955078,116.78975333251952,93.34186553955078Q117.21065333251953,93.34186553955078,117.63115333251953,93.36257953955078Q118.05155333251953,93.38329343955078,118.47045333251953,93.42467153955079Q118.88945333251954,93.46604953955078,119.30585333251953,93.52799153955078Q119.72225333251953,93.58993453955078,120.13505333251953,93.67229153955078Q120.54795333251953,93.75464953955078,120.95625333251954,93.85722353955079Q121.36465333251954,93.95979853955077,121.76745333251952,94.08234253955078Q122.17025333251954,94.20488653955078,122.56665333251954,94.34710553955078Q122.96295333251953,94.48932553955078,123.35185333251954,94.65087553955078Q123.74085333251954,94.81242553955079,124.12135333251953,94.99291553955078Q124.50185333251953,95.17340553955079,124.87315333251954,95.37240553955078Q125.24435333251952,95.57141553955078,125.60545333251953,95.78843553955078Q125.96655333251954,96.00546553955078,126.31655333251953,96.24000553955078Q126.66655333251953,96.47453553955079,127.00465333251952,96.72601553955079Q127.34275333251954,96.97748553955078,127.66815333251952,97.24529553955078Q127.99355333251953,97.51310553955078,128.30545333251953,97.79660553955078Q128.61735333251954,98.08010553955079,128.91505333251953,98.37861553955078Q129.21275333251953,98.67711553955078,129.49545333251953,98.98991553955078Q129.77815333251954,99.30270553955079,130.04515333251953,99.62903553955078Q130.31225333251953,99.95535553955078,130.56295333251953,100.29443553955078Q130.81375333251952,100.63350553955078,131.04765333251953,100.98451553955078Q131.28145333251953,101.33552553955079,131.49785333251953,101.69761553955078Q131.71435333251952,102.05970553955078,131.91275333251951,102.43200553955079Q132.11115333251954,102.80431553955079,132.2911533325195,103.18593553955078Q132.47115333251952,103.56756553955078,132.63225333251953,103.95756553955079Q132.79335333251953,104.34756553955079,132.93515333251952,104.74506553955078Q133.07695333251954,105.14256553955079,133.19915333251953,105.54646553955078Q133.32135333251952,105.95046553955078,133.42365333251954,106.35996553955079Q133.52595333251952,106.76946553955078,133.60805333251955,107.18356553955078Q133.69015333251951,107.59756553955079,133.75195333251952,108.01516553955078Q133.81375333251952,108.43276553955079,133.85495333251953,108.85286553955078Q133.89625333251954,109.27296553955078,133.91685333251954,109.69456553955078Q133.93755333251954,110.11626553955078,133.93755333251954,110.53836553955078Z" fill="#C4C0FF" fill-opacity="1"/>
      </g>
    </g>
  </g>
</svg>
