<svg xmlns="http://www.w3.org/2000/svg" xmlns:xlink="http://www.w3.org/1999/xlink" fill="none" version="1.1" width="160" height="160" viewBox="0 0 160 160">
  <defs>
    <clipPath id="master_svg0_214_10347">
      <rect x="0" y="0" width="160" height="160" rx="0"/>
    </clipPath>
    <linearGradient x1="0" y1="1" x2="1" y2="1" id="master_svg1_103_05431">
      <stop offset="0%" stop-color="#5850CB" stop-opacity="1"/>
      <stop offset="100%" stop-color="#7269D2" stop-opacity="1"/>
    </linearGradient>
  </defs>
  <g clip-path="url(#master_svg0_214_10347)">
    <g>
      <g>
        <path d="M80.5,127.02499212646484Q91.1423,122.62359212646484,119.68889999999999,121.34969212646484C126.6676,121.03829212646484,132.2275,115.36549212646484,132.2275,108.37989212646484L132.2275,90.61849212646484L80.5,90.61849212646484L80.5,127.02499212646484Z" fill="#C4C0FF" fill-opacity="1"/>
      </g>
      <g transform="matrix(-1,0,0,1,161,0)">
        <path d="M80.5,127.02499212646484Q91.1423,122.62359212646484,119.68889999999999,121.34969212646484C126.6676,121.03829212646484,132.2275,115.36549212646484,132.2275,108.37989212646484L132.2275,90.61849212646484L80.5,90.61849212646484L80.5,127.02499212646484Z" fill="#7067D3" fill-opacity="1"/>
        <path d="M80.5,127.02499212646484Q91.1423,122.62359212646484,119.68889999999999,121.34969212646484C126.6676,121.03829212646484,132.2275,115.36549212646484,132.2275,108.37989212646484L132.2275,90.61849212646484L80.5,90.61849212646484L80.5,127.02499212646484Z" fill="url(#master_svg1_103_05431)" fill-opacity="1"/>
      </g>
      <g>
        <path d="M80.5,45.67586538085938L80.5,123.23266538085937Q90.29004,114.35246538085937,124.4033,110.70146538085937C128.8241,110.22836538085937,132.2275,106.54006538085937,132.2275,102.09396538085937L132.2275,40.031225380859375C132.2275,36.170195380859376,129.0524,33.064102380859374,125.1965,33.26224714085937Q106.0639,34.24541138085937,95.8683,37.14654538085937Q83.87353,40.559655380859375,80.5,45.67586538085938Z" fill="#8D77FE" fill-opacity="1"/>
      </g>
      <g transform="matrix(-1,0,0,1,161,0)">
        <path d="M80.5,45.67586538085938L80.5,123.23266538085937Q90.29004,114.35246538085937,124.4033,110.70146538085937C128.8241,110.22836538085937,132.2275,106.54006538085937,132.2275,102.09396538085937L132.2275,40.031225380859375C132.2275,36.170195380859376,129.0524,33.064102380859374,125.1965,33.26224714085937Q106.0639,34.24541138085937,95.8683,37.14654538085937Q83.87353,40.559655380859375,80.5,45.67586538085938Z" fill="#C4C0FF" fill-opacity="1"/>
      </g>
      <g>
        <path d="" fill="#FFFFFF" fill-opacity="0"/>
      </g>
      <g>
        <path d="" fill="#FFFFFF" fill-opacity="0"/>
      </g>
    </g>
    <g>
      <rect x="39" y="51" width="30" height="8" rx="4" fill="#FFFFFF" fill-opacity="1"/>
    </g>
    <g>
      <rect x="39" y="67" width="24" height="8" rx="4" fill="#FFFFFF" fill-opacity="1"/>
    </g>
  </g>
</svg>
