<?xml version="1.0" standalone="no"?><!DOCTYPE svg PUBLIC "-//W3C//DTD SVG 1.1//EN" "http://www.w3.org/Graphics/SVG/1.1/DTD/svg11.dtd"><svg t="1751214123144" class="icon" viewBox="0 0 1024 1024" version="1.1" xmlns="http://www.w3.org/2000/svg" p-id="6084" xmlns:xlink="http://www.w3.org/1999/xlink" width="200" height="200"><path d="M880 88H400c-35.346 0-64 28.654-64 64v736c0 35.346 28.654 64 64 64h384l160-144V152c0-35.346-28.654-64-64-64z" fill="#D7E6F0" p-id="6085"></path><path d="M856 728H424c-13.254 0-24 10.746-24 24s10.746 24 24 24h432c13.254 0 24-10.746 24-24s-10.746-24-24-24zM648 808H424c-13.254 0-24 10.746-24 24s10.746 24 24 24h224c13.254 0 24-10.746 24-24s-10.746-24-24-24z" fill="#A5C3DC" p-id="6086"></path><path d="M811.158 552a20.834 20.834 0 0 0-19.466 13.436 127.06 127.06 0 0 1-2.9 6.978c-3.57 7.918-1.916 17.208 4.226 23.35l0.008 0.008c8.14 8.14 8.14 21.336 0 29.476l-15.778 15.778a20.776 20.776 0 0 1-14.738 6.104H707.84a20.772 20.772 0 0 0-3.838 12.026c0 11.512-9.332 20.844-20.842 20.844h-86.314c-11.51 0-20.842-9.332-20.842-20.844 0-4.414-1.4-8.586-3.838-12.026h-54.67a20.776 20.776 0 0 1-14.738-6.104l-15.778-15.778c-8.14-8.14-8.14-21.336 0-29.476l0.008-0.008c6.142-6.142 7.796-15.432 4.226-23.35-1.034-2.29-2-4.618-2.9-6.978a20.836 20.836 0 0 0-19.466-13.436c-11.51 0-20.842-9.332-20.842-20.844v-22.314c0-11.512 9.332-20.844 20.842-20.844a20.84 20.84 0 0 0 19.466-13.436 127.06 127.06 0 0 1 2.9-6.978c3.57-7.918 1.916-17.208-4.226-23.35l-0.008-0.008c-8.14-8.14-8.14-21.336 0-29.476l15.778-15.778a20.776 20.776 0 0 1 14.738-6.104h54.67a20.772 20.772 0 0 0 3.838-12.026c0-11.512 9.332-20.844 20.842-20.844h86.314c11.51 0 20.842 9.332 20.842 20.844 0 4.414 1.4 8.586 3.838 12.026h54.67c5.334 0 10.668 2.034 14.738 6.104l15.778 15.778c8.14 8.14 8.14 21.336 0 29.476l-0.008 0.008c-6.142 6.142-7.796 15.432-4.226 23.35 1.034 2.29 2 4.618 2.9 6.978a20.836 20.836 0 0 0 19.466 13.436c11.51 0 20.842 9.332 20.842 20.844v22.314c0 11.512-9.332 20.844-20.842 20.844z m-187.004-35.896c-1.24 15.734 5.112 30.028 15.782 39.614 8.936-8.004 14.92-19.254 15.91-31.822 1.24-15.734-5.112-30.028-15.782-39.614-8.936 8.004-14.918 19.254-15.91 31.822z" fill="#2387C3" p-id="6087"></path><path d="M768 508.844v22.314c0 11.512-9.332 20.844-20.844 20.844a20.834 20.834 0 0 0-19.466 13.436 128.646 128.646 0 0 1-2.9 6.978c-3.57 7.918-1.916 17.208 4.226 23.35l0.008 0.008c8.14 8.14 8.14 21.336 0 29.476l-15.778 15.778c-8.14 8.14-21.336 8.14-29.476 0l-0.008-0.008c-6.142-6.142-15.43-7.796-23.348-4.226-2.29 1.032-4.618 2-6.978 2.9A20.834 20.834 0 0 0 640 659.16c0 11.512-9.332 20.844-20.844 20.844h-22.314c-11.512 0-20.844-9.332-20.844-20.844 0-8.652-5.352-16.386-13.436-19.466a127.06 127.06 0 0 1-6.978-2.9c-7.918-3.57-17.208-1.914-23.348 4.226l-0.008 0.008c-8.14 8.14-21.336 8.14-29.476 0l-15.778-15.778c-8.14-8.14-8.14-21.336 0-29.476l0.008-0.008c6.142-6.142 7.796-15.432 4.226-23.35-1.032-2.29-2-4.618-2.9-6.978a20.834 20.834 0 0 0-19.466-13.436c-11.512 0-20.844-9.332-20.844-20.844v-22.314c0-11.512 9.332-20.844 20.844-20.844 8.652 0 16.386-5.352 19.466-13.436a127.06 127.06 0 0 1 2.9-6.978c3.57-7.918 1.916-17.208-4.226-23.35l-0.008-0.008c-8.14-8.14-8.14-21.336 0-29.476l15.778-15.778c8.14-8.14 21.336-8.14 29.476 0l0.008 0.008c6.142 6.142 15.43 7.796 23.348 4.226 2.29-1.032 4.618-2 6.978-2.9a20.834 20.834 0 0 0 13.436-19.466c0-11.512 9.332-20.844 20.844-20.844h22.314c11.512 0 20.844 9.332 20.844 20.844 0 8.652 5.352 16.386 13.436 19.466 2.36 0.9 4.686 1.866 6.978 2.9 7.918 3.57 17.208 1.916 23.348-4.226l0.008-0.008c8.14-8.14 21.336-8.14 29.476 0l15.778 15.778c8.14 8.14 8.14 21.336 0 29.476l-0.008 0.008c-6.142 6.142-7.796 15.432-4.226 23.35 1.032 2.29 2 4.618 2.9 6.978a20.834 20.834 0 0 0 19.466 13.436c11.512 0 20.844 9.332 20.844 20.844z m-112.154 15.052c2.332-29.576-22.164-54.074-51.74-51.742-23.266 1.834-42.116 20.684-43.952 43.95-2.332 29.576 22.164 54.074 51.74 51.742 23.268-1.834 42.118-20.684 43.952-43.95z" fill="#5AD7FF" p-id="6088"></path><path d="M784 952v-80c0-35.346 28.654-64 64-64h96z" fill="#A5C3DC" p-id="6089"></path><path d="M336 904m-32 0a32 32 0 1 0 64 0 32 32 0 1 0-64 0Z" fill="#D7E6F0" p-id="6090"></path><path d="M336 872v64c17.674 0 32-14.326 32-32s-14.326-32-32-32z" fill="#A5C3DC" p-id="6091"></path><path d="M368 680h-64c-123.712 0-224-100.288-224-224s100.288-224 224-224h64c123.712 0 224 100.288 224 224s-100.288 224-224 224z" fill="#2387C3" p-id="6092"></path><path d="M304 456m-224 0a224 224 0 1 0 448 0 224 224 0 1 0-448 0Z" fill="#5AD7FF" p-id="6093"></path><path d="M304 456m-160 0a160 160 0 1 0 320 0 160 160 0 1 0-320 0Z" fill="#D7E6F0" p-id="6094"></path><path d="M400 456a94.64 94.64 0 0 0-0.484-9.544c-0.506-4.994 2.002-9.808 6.35-12.318l0.012-0.006a12.84 12.84 0 0 0 4.7-17.538l-19.162-33.19a12.84 12.84 0 0 0-17.538-4.7l-0.02 0.012c-4.346 2.508-9.768 2.274-13.84-0.658a95.762 95.762 0 0 0-16.562-9.58c-4.56-2.06-7.456-6.638-7.456-11.642a12.84 12.84 0 0 0-12.838-12.838h-38.324a12.84 12.84 0 0 0-12.838 12.838c0 5.004-2.894 9.582-7.456 11.642a95.762 95.762 0 0 0-16.562 9.58 12.766 12.766 0 0 1-13.84 0.658l-0.02-0.012a12.838 12.838 0 0 0-17.538 4.7l-19.162 33.19a12.838 12.838 0 0 0 4.7 17.538l0.012 0.006a12.766 12.766 0 0 1 6.35 12.318 94.64 94.64 0 0 0 0 19.088c0.506 4.994-2.002 9.808-6.35 12.318l-0.012 0.006a12.84 12.84 0 0 0-4.7 17.538l19.162 33.19a12.84 12.84 0 0 0 17.538 4.7l0.02-0.012c4.346-2.508 9.768-2.274 13.84 0.658a95.762 95.762 0 0 0 16.562 9.58c4.56 2.06 7.456 6.638 7.456 11.642a12.84 12.84 0 0 0 12.838 12.838h38.324a12.84 12.84 0 0 0 12.838-12.838c0-5.004 2.894-9.582 7.456-11.642a95.762 95.762 0 0 0 16.562-9.58c4.072-2.932 9.494-3.166 13.84-0.658l0.02 0.012a12.838 12.838 0 0 0 17.538-4.7l19.162-33.19a12.838 12.838 0 0 0-4.7-17.538l-0.012-0.006a12.766 12.766 0 0 1-6.35-12.318A94.64 94.64 0 0 0 400 456z" fill="#A5C3DC" p-id="6095"></path><path d="M304 456m-32 0a32 32 0 1 0 64 0 32 32 0 1 0-64 0Z" fill="#D7E6F0" p-id="6096"></path><path d="M240 392m-32 0a32 32 0 1 0 64 0 32 32 0 1 0-64 0Z" fill="#FFFFFF" p-id="6097"></path><path d="M304 680h64v32h-64z" fill="#D7E6F0" p-id="6098"></path><path d="M304 680v16h16a16 16 0 0 1 16 16h32v-32z" fill="#A5C3DC" p-id="6099"></path><path d="M368 904h-64a16 16 0 0 1-16-16v-160a16 16 0 0 1 16-16h64a16 16 0 0 1 16 16v160a16 16 0 0 1-16 16z" fill="#5AD7FF" p-id="6100"></path><path d="M368 904h-32v-192h32a16 16 0 0 1 16 16v160a16 16 0 0 1-16 16z" fill="#2387C3" p-id="6101"></path><path d="M640 232m-160 0a160 160 0 1 0 320 0 160 160 0 1 0-320 0Z" fill="#FF6E91" p-id="6102"></path><path d="M645.334 184h-8.668l1.34-8.036a16.002 16.002 0 0 0-13.152-18.414c-8.702-1.448-16.96 4.436-18.414 13.152L604.224 184h-28.002l1.34-8.036a16.004 16.004 0 0 0-13.152-18.414c-8.702-1.448-16.96 4.436-18.414 13.152L543.778 184h-10.444a16 16 0 0 0 0 32h5.11l-5.334 32h-10.446a16 16 0 0 0 0 32h5.112l-1.34 8.036a16.004 16.004 0 0 0 15.802 18.632 16.004 16.004 0 0 0 15.764-13.372l2.216-13.296h28l-1.34 8.036a16.002 16.002 0 0 0 31.566 5.26L620.66 280h14a16 16 0 0 0 0-32H626l5.334-32h14a16 16 0 0 0 0-32z m-51.778 64h-28l5.334-32h28.002zM752 264h-48v-8c0-4.412 3.588-8 8-8h16c22.056 0 40-17.944 40-40s-17.944-40-40-40h-40a16 16 0 0 0 0 32h40c4.412 0 8 3.588 8 8s-3.588 8-8 8h-16c-22.056 0-40 17.944-40 40v24a16 16 0 0 0 16 16h64a16 16 0 0 0 0-32z" fill="#E64178" p-id="6103"></path></svg>