<svg xmlns="http://www.w3.org/2000/svg" xmlns:xlink="http://www.w3.org/1999/xlink" fill="none" version="1.1" width="40" height="40" viewBox="0 0 40 40"><g><g style="opacity:0;"><path d="M0,0L40,0L40,40L0,40L0,0Z" fill="#D8D8D8" fill-opacity="1"/></g><g transform="matrix(-1,0,0,1,76.54541015625,0)"><g><path d="M43.62060546875,27.966567993164062L43.62060546875,7.9665679931640625C43.62060546875,6.585857993164062,44.73989546875,5.4665679931640625,46.12060546875,5.4665679931640625L69.87060546875,5.4665679931640625C71.25130546875,5.4665679931640625,72.37060546875,6.585857993164062,72.37060546875,7.9665679931640625L72.37060546875,27.966567993164062C72.37060546875,29.347267993164063,71.25130546875,30.466567993164062,69.87060546875,30.466567993164062L46.12060546875,30.466567993164062C44.73989546875,30.466567993164062,43.62060546875,29.347267993164063,43.62060546875,27.966567993164062Z" fill="#09BCB8" fill-opacity="1"/></g><g><path d="M54.56614921875,27.724486118164062Q54.56614921875,27.924466118164062,54.55634921875,28.124216118164064Q54.54644921875,28.323966118164062,54.52684921875,28.522986118164063Q54.507249218750005,28.72200611816406,54.47794921875,28.919836118164064Q54.44854921875,29.117656118164064,54.40954921875,29.313796118164063Q54.37054921875,29.509946118164063,54.32194921875,29.70389611816406Q54.27334921875,29.897896118164063,54.21534921875,30.089296118164064Q54.157249218749996,30.280696118164062,54.08994921875,30.468996118164064Q54.02254921875,30.657296118164062,53.94594921875,30.84199611816406Q53.86944921875,31.026796118164064,53.783949218749996,31.207596118164062Q53.69844921875,31.38839611816406,53.60414921875,31.56479611816406Q53.50994921875,31.741096118164062,53.407049218750004,31.912696118164064Q53.30424921875,32.08419611816406,53.19314921875,32.250496118164065Q53.08204921875,32.416796118164065,52.96294921875,32.57739611816406Q52.84384921875,32.73799611816406,52.71694921875,32.892596118164064Q52.590049218749996,33.04719611816407,52.45574921875,33.19539611816406Q52.321449218750004,33.343596118164065,52.18004921875,33.48499611816406Q52.03864921875,33.62639611816407,51.89044921875,33.76069611816406Q51.742249218750004,33.89499611816406,51.58764921875,34.021896118164065Q51.43304921875,34.148796118164064,51.27244921875,34.26789611816406Q51.11184921875,34.38699611816406,50.94554921875,34.498096118164064Q50.779249218749996,34.609196118164064,50.60774921875,34.711996118164066Q50.43614921875,34.814896118164064,50.25984921875,34.909096118164065Q50.08344921875,35.00339611816406,49.90264921875,35.08889611816406Q49.72184921875,35.17439611816406,49.53704921875,35.250896118164064Q49.35234921875,35.32749611816406,49.16404921875,35.39489611816406Q48.975749218749996,35.46219611816406,48.78434921875,35.52029611816406Q48.59294921875,35.57829611816406,48.39894921875,35.62689611816406Q48.204999218750004,35.67549611816406,48.00884921875,35.714496118164064Q47.81270921875,35.753496118164065,47.61488921875,35.78289611816406Q47.41705921875,35.81219611816407,47.21803921875,35.831796118164064Q47.01901921875,35.85139611816406,46.81926921875,35.86129611816406Q46.61951921875,35.87109611816406,46.41953921875,35.87109611816406Q46.219549218750004,35.87109611816406,46.01979921875,35.86129611816406Q45.82004921875,35.85139611816406,45.62102921875,35.831796118164064Q45.42200921875,35.81219611816407,45.22417921875,35.78289611816406Q45.02635921875,35.753496118164065,44.83021921875,35.714496118164064Q44.63406921875,35.67549611816406,44.44007921875,35.62689611816406Q44.24607921875,35.57829611816406,44.05470921875,35.52029611816406Q43.863329218749996,35.46219611816406,43.67502921875,35.39489611816406Q43.48673921875,35.32749611816406,43.30196921875,35.250896118164064Q43.11720921875,35.17439611816406,42.936419218750004,35.08889611816406Q42.75562921875,35.00339611816406,42.579259218749996,34.909096118164065Q42.40288921875,34.814896118164064,42.23134921875,34.711996118164066Q42.05981921875,34.609196118164064,41.89352921875,34.498096118164064Q41.72724921875,34.38699611816406,41.56661921875,34.26789611816406Q41.40598921875,34.148796118164064,41.25139921875,34.021896118164065Q41.09679921875,33.89499611816406,40.94861921875,33.76069611816406Q40.80043921875,33.62639611816407,40.65902921875,33.48499611816406Q40.51761921875,33.343596118164065,40.38330921875,33.19539611816406Q40.24900921875,33.04719611816407,40.12213921875,32.892596118164064Q39.99526921875,32.73799611816406,39.87613921875,32.57739611816406Q39.75699921875,32.416796118164065,39.64589921875,32.250496118164065Q39.53478921875,32.08419611816406,39.43197921875,31.912696118164064Q39.32915921875,31.741096118164062,39.23488721875,31.56479611816406Q39.14061421875,31.38839611816406,39.05510821875,31.207596118164062Q38.96960321875,31.026796118164064,38.89307121875,30.84199611816406Q38.81653921875,30.657296118164062,38.74916521875,30.468996118164064Q38.68179221875,30.280696118164062,38.62373821875,30.089296118164064Q38.56568521875,29.897896118164063,38.51709221875,29.70389611816406Q38.46849921875,29.509946118164063,38.42948321875,29.313796118164063Q38.39046821875,29.117656118164064,38.36112371875,28.919836118164064Q38.33177941875,28.72200611816406,38.31217721875,28.522986118164063Q38.29257501875,28.323966118164062,38.28276213875,28.124216118164064Q38.27294921875,27.924466118164062,38.27294921875,27.724486118164062Q38.27294921875,27.524496118164063,38.28276213875,27.324746118164065Q38.29257501875,27.124996118164063,38.31217721875,26.925976118164062Q38.33177941875,26.72695611816406,38.36112371875,26.52912611816406Q38.39046821875,26.33130611816406,38.42948321875,26.13516611816406Q38.46849921875,25.939016118164062,38.51709221875,25.745026118164063Q38.56568521875,25.551026118164064,38.62373821875,25.35965611816406Q38.68179221875,25.168276118164062,38.74916521875,24.97997611816406Q38.81653921875,24.791686118164062,38.89307121875,24.60691611816406Q38.96960321875,24.42215611816406,39.05510821875,24.241366118164063Q39.14061421875,24.060576118164064,39.23488721875,23.884206118164062Q39.32915921875,23.707836118164064,39.43197921875,23.536296118164064Q39.53478921875,23.364766118164063,39.64589921875,23.198476118164063Q39.75699921875,23.032196118164062,39.87613921875,22.87156611816406Q39.99526921875,22.710936118164064,40.12213921875,22.55634611816406Q40.24900921875,22.401746118164063,40.38330921875,22.253566118164063Q40.51761921875,22.105386118164063,40.65902921875,21.963976118164062Q40.80043921875,21.822566118164062,40.94861921875,21.688256118164063Q41.09679921875,21.553956118164063,41.25139921875,21.427086118164063Q41.40598921875,21.300216118164062,41.56661921875,21.181086118164064Q41.72724921875,21.061946118164062,41.89352921875,20.950846118164062Q42.05981921875,20.839736118164062,42.23134921875,20.736926118164064Q42.40288921875,20.634106118164063,42.579259218749996,20.539834118164062Q42.75562921875,20.44556111816406,42.936419218750004,20.360055118164063Q43.11720921875,20.27455011816406,43.30196921875,20.19801811816406Q43.48673921875,20.121486118164064,43.67502921875,20.054112118164063Q43.863329218749996,19.986739118164063,44.05470921875,19.92868511816406Q44.24607921875,19.870632118164064,44.44007921875,19.822039118164064Q44.63406921875,19.773446118164063,44.83020921875,19.734430118164063Q45.02635921875,19.695415118164064,45.22417921875,19.666070618164063Q45.42200921875,19.63672631816406,45.62102921875,19.617124118164064Q45.82004921875,19.597521918164063,46.01979921875,19.587709038164064Q46.219549218750004,19.577896118164062,46.41953921875,19.577896118164062Q46.61951921875,19.577896118164062,46.81926921875,19.587709038164064Q47.01901921875,19.597521918164063,47.21803921875,19.617124118164064Q47.41705921875,19.63672631816406,47.61488921875,19.666070618164063Q47.81270921875,19.695415118164064,48.00884921875,19.734430118164063Q48.204999218750004,19.773446118164063,48.39894921875,19.822039118164064Q48.59294921875,19.870632118164064,48.78434921875,19.92868511816406Q48.975749218749996,19.986739118164063,49.16404921875,20.054112118164063Q49.35234921875,20.121486118164064,49.53704921875,20.19801811816406Q49.72184921875,20.27455011816406,49.90264921875,20.360055118164063Q50.08344921875,20.44556111816406,50.25984921875,20.539834118164062Q50.43614921875,20.634106118164063,50.60774921875,20.736926118164064Q50.779249218749996,20.839736118164062,50.94554921875,20.950846118164062Q51.11184921875,21.061946118164062,51.27244921875,21.181086118164064Q51.43304921875,21.300216118164062,51.58764921875,21.427086118164063Q51.742249218750004,21.553956118164063,51.89044921875,21.688256118164063Q52.03864921875,21.822566118164062,52.18004921875,21.963976118164062Q52.321449218750004,22.105386118164063,52.45574921875,22.253566118164063Q52.590049218749996,22.401746118164063,52.71694921875,22.55634611816406Q52.84384921875,22.710936118164064,52.96294921875,22.87156611816406Q53.08204921875,23.032196118164062,53.19314921875,23.198476118164063Q53.30424921875,23.364766118164063,53.407049218750004,23.536296118164064Q53.50994921875,23.707836118164064,53.60414921875,23.884206118164062Q53.69844921875,24.060576118164064,53.783949218749996,24.241366118164063Q53.86944921875,24.42215611816406,53.94594921875,24.60691611816406Q54.02254921875,24.791686118164062,54.08994921875,24.97997611816406Q54.157249218749996,25.168276118164062,54.21534921875,25.35965611816406Q54.27334921875,25.551026118164064,54.32194921875,25.745026118164063Q54.37054921875,25.939016118164062,54.40954921875,26.135156118164062Q54.44854921875,26.33130611816406,54.47794921875,26.52912611816406Q54.507249218750005,26.72695611816406,54.52684921875,26.925976118164062Q54.54644921875,27.124996118164063,54.55634921875,27.324746118164065Q54.56614921875,27.524496118164063,54.56614921875,27.724486118164062Z" fill="#8CEAE6" fill-opacity="1"/></g><g transform="matrix(-1,0,0,1,109.1298828125,0)"><path d="M65.50984140625,20.073576118164063L65.50984140625,27.96656611816406C65.50984140625,29.34727611816406,64.39055140625,30.466596118164063,63.009841406250004,30.466596118164063L55.04030540625,30.466596118164063C54.72575040625,29.58659611816406,54.56495332715,28.659006118164065,54.56495332715,27.724486118164062C54.56495332715,23.225246118164062,58.21230140625,19.577896118164062,62.71154140625,19.577896118164062C63.66614140625,19.577896118164062,64.61334140625,19.745675118164062,65.50984140625,20.073576118164063Z" fill-rule="evenodd" fill="#0A9C99" fill-opacity="1"/></g><g transform="matrix(-1,0,0,1,135.4267578125,0)"><path d="M69.63390890625,9.817595368164062L74.17757890625,14.360782368164063Q74.59864890625,14.781802368164062,74.59865890625,15.377262368164063Q74.59867890625,15.972712368164062,74.17762890624999,16.39376236816406L69.63386890625,20.937552368164063C69.42289890625,21.14845236816406,69.13674890625,21.267052368164062,68.83837890625,21.267052368164062C68.21705890625,21.267052368164062,67.71337890625,20.763352368164064,67.71337890625,20.142052368164062C67.71337890625,19.843652368164065,67.83190490625,19.55755236816406,68.04288390625,19.346532368164063L72.01207890625,15.377332368164062L68.04300590625,11.408672368164062C67.83192190625,11.197612368164062,67.71337890625,10.911442368164062,67.71337890625,10.613052368164062C67.71337890625,9.991732368164062,68.21705890625,9.488052368164062,68.83837890625,9.488052368164062C69.13672890625,9.488052368164062,69.42285890625,9.606562368164063,69.63390890625,9.817595368164062ZM76.69482890625,19.923252368164064L82.53497890625,19.923252368164064C83.15637890625,19.923252368164064,83.65997890625,20.426952368164063,83.65997890625,21.048252368164064C83.65997890625,21.669552368164062,83.15637890625,22.173252368164064,82.53497890625,22.173252368164064L76.69482890625,22.173252368164064C76.07349890625,22.173252368164064,75.56982890625,21.669552368164062,75.56982890625,21.048252368164064C75.56982890625,20.426952368164063,76.07349890625,19.923252368164064,76.69482890625,19.923252368164064Z" fill-rule="evenodd" fill="#FFFFFF" fill-opacity="1"/></g></g></g></svg>