<svg xmlns="http://www.w3.org/2000/svg" xmlns:xlink="http://www.w3.org/1999/xlink" fill="none" version="1.1" width="124" height="32" viewBox="0 0 124 32"><defs><mask id="master_svg0_15_310161/15_297680/1_2344" style="mask-type:alpha" maskUnits="objectBoundingBox"><g><path d="M19.9628873046875,20.069725976562502L19.9628873046875,11.9282459765625C19.9628873046875,11.2333859765625,19.5940873046875,10.5936359765625,18.9956873046875,10.2452259765625L11.9681473046875,6.1764599765625C11.3697673046875,5.8300145765625,10.6301273046875,5.8300145765625,10.0317473046875,6.1764599765625L3.0042063046875,10.2471959765625C2.4058253046875,10.5936359765625,2.0369873046875,11.235345976562499,2.0369873046875,11.9282459765625L2.0369873046875,20.069725976562502C2.0369873046875,20.7626259765625,2.4058253046875,21.4043259765625,3.0042063046875,21.752725976562502L10.0317473046875,25.8234259765625C10.6301273046875,26.1699259765625,11.3697673046875,26.1699259765625,11.9681473046875,25.8234259765625L18.9956873046875,21.752725976562502C19.5940873046875,21.4063259765625,19.9628873046875,20.7645259765625,19.9628873046875,20.069725976562502Z" fill="#FFFFFF" fill-opacity="1"/></g></mask><mask id="master_svg1_15_310161/15_297680/1_2333" style="mask-type:alpha" maskUnits="objectBoundingBox"><g><path d="M19.9628873046875,20.069725976562502L19.9628873046875,11.9282459765625C19.9628873046875,11.2333859765625,19.5940873046875,10.5936359765625,18.9956873046875,10.2452259765625L11.9681473046875,6.1764599765625C11.3697673046875,5.8300145765625,10.6301273046875,5.8300145765625,10.0317473046875,6.1764599765625L3.0042063046875,10.2471959765625C2.4058253046875,10.5936359765625,2.0369873046875,11.235345976562499,2.0369873046875,11.9282459765625L2.0369873046875,20.069725976562502C2.0369873046875,20.7626259765625,2.4058253046875,21.4043259765625,3.0042063046875,21.752725976562502L10.0317473046875,25.8234259765625C10.6301273046875,26.1699259765625,11.3697673046875,26.1699259765625,11.9681473046875,25.8234259765625L18.9956873046875,21.752725976562502C19.5940873046875,21.4063259765625,19.9628873046875,20.7645259765625,19.9628873046875,20.069725976562502Z" fill="#FFFFFF" fill-opacity="1"/></g></mask><mask id="master_svg2_15_310161/15_297680/1_2331" style="mask-type:alpha" maskUnits="objectBoundingBox"><g><path d="M19.9628873046875,20.069725976562502L19.9628873046875,11.9282459765625C19.9628873046875,11.2333859765625,19.5940873046875,10.5936359765625,18.9956873046875,10.2452259765625L11.9681473046875,6.1764599765625C11.3697673046875,5.8300145765625,10.6301273046875,5.8300145765625,10.0317473046875,6.1764599765625L3.0042063046875,10.2471959765625C2.4058253046875,10.5936359765625,2.0369873046875,11.235345976562499,2.0369873046875,11.9282459765625L2.0369873046875,20.069725976562502C2.0369873046875,20.7626259765625,2.4058253046875,21.4043259765625,3.0042063046875,21.752725976562502L10.0317473046875,25.8234259765625C10.6301273046875,26.1699259765625,11.3697673046875,26.1699259765625,11.9681473046875,25.8234259765625L18.9956873046875,21.752725976562502C19.5940873046875,21.4063259765625,19.9628873046875,20.7645259765625,19.9628873046875,20.069725976562502Z" fill="#FFFFFF" fill-opacity="1"/></g></mask><mask id="master_svg3_15_310161/15_297680/1_2339" style="mask-type:alpha" maskUnits="objectBoundingBox"><g><path d="M19.9628873046875,20.069725976562502L19.9628873046875,11.9282459765625C19.9628873046875,11.2333859765625,19.5940873046875,10.5936359765625,18.9956873046875,10.2452259765625L11.9681473046875,6.1764599765625C11.3697673046875,5.8300145765625,10.6301273046875,5.8300145765625,10.0317473046875,6.1764599765625L3.0042063046875,10.2471959765625C2.4058253046875,10.5936359765625,2.0369873046875,11.235345976562499,2.0369873046875,11.9282459765625L2.0369873046875,20.069725976562502C2.0369873046875,20.7626259765625,2.4058253046875,21.4043259765625,3.0042063046875,21.752725976562502L10.0317473046875,25.8234259765625C10.6301273046875,26.1699259765625,11.3697673046875,26.1699259765625,11.9681473046875,25.8234259765625L18.9956873046875,21.752725976562502C19.5940873046875,21.4063259765625,19.9628873046875,20.7645259765625,19.9628873046875,20.069725976562502Z" fill="#FFFFFF" fill-opacity="1"/></g></mask><mask id="master_svg4_15_310161/15_297680/1_2314" style="mask-type:alpha" maskUnits="objectBoundingBox"><g><path d="M19.9628873046875,20.069725976562502L19.9628873046875,11.9282459765625C19.9628873046875,11.2333859765625,19.5940873046875,10.5936359765625,18.9956873046875,10.2452259765625L11.9681473046875,6.1764599765625C11.3697673046875,5.8300145765625,10.6301273046875,5.8300145765625,10.0317473046875,6.1764599765625L3.0042063046875,10.2471959765625C2.4058253046875,10.5936359765625,2.0369873046875,11.235345976562499,2.0369873046875,11.9282459765625L2.0369873046875,20.069725976562502C2.0369873046875,20.7626259765625,2.4058253046875,21.4043259765625,3.0042063046875,21.752725976562502L10.0317473046875,25.8234259765625C10.6301273046875,26.1699259765625,11.3697673046875,26.1699259765625,11.9681473046875,25.8234259765625L18.9956873046875,21.752725976562502C19.5940873046875,21.4063259765625,19.9628873046875,20.7645259765625,19.9628873046875,20.069725976562502Z" fill="#FFFFFF" fill-opacity="1"/></g></mask><mask id="master_svg5_15_310161/15_297680/1_2321" style="mask-type:alpha" maskUnits="objectBoundingBox"><g><path d="M19.9628873046875,20.069725976562502L19.9628873046875,11.9282459765625C19.9628873046875,11.2333859765625,19.5940873046875,10.5936359765625,18.9956873046875,10.2452259765625L11.9681473046875,6.1764599765625C11.3697673046875,5.8300145765625,10.6301273046875,5.8300145765625,10.0317473046875,6.1764599765625L3.0042063046875,10.2471959765625C2.4058253046875,10.5936359765625,2.0369873046875,11.235345976562499,2.0369873046875,11.9282459765625L2.0369873046875,20.069725976562502C2.0369873046875,20.7626259765625,2.4058253046875,21.4043259765625,3.0042063046875,21.752725976562502L10.0317473046875,25.8234259765625C10.6301273046875,26.1699259765625,11.3697673046875,26.1699259765625,11.9681473046875,25.8234259765625L18.9956873046875,21.752725976562502C19.5940873046875,21.4063259765625,19.9628873046875,20.7645259765625,19.9628873046875,20.069725976562502Z" fill="#FFFFFF" fill-opacity="1"/></g></mask><mask id="master_svg6_15_310161/15_297680/1_2323" style="mask-type:alpha" maskUnits="objectBoundingBox"><g><path d="M19.9628873046875,20.069725976562502L19.9628873046875,11.9282459765625C19.9628873046875,11.2333859765625,19.5940873046875,10.5936359765625,18.9956873046875,10.2452259765625L11.9681473046875,6.1764599765625C11.3697673046875,5.8300145765625,10.6301273046875,5.8300145765625,10.0317473046875,6.1764599765625L3.0042063046875,10.2471959765625C2.4058253046875,10.5936359765625,2.0369873046875,11.235345976562499,2.0369873046875,11.9282459765625L2.0369873046875,20.069725976562502C2.0369873046875,20.7626259765625,2.4058253046875,21.4043259765625,3.0042063046875,21.752725976562502L10.0317473046875,25.8234259765625C10.6301273046875,26.1699259765625,11.3697673046875,26.1699259765625,11.9681473046875,25.8234259765625L18.9956873046875,21.752725976562502C19.5940873046875,21.4063259765625,19.9628873046875,20.7645259765625,19.9628873046875,20.069725976562502Z" fill="#FFFFFF" fill-opacity="1"/></g></mask></defs><g><g><g><g><g mask="url(#master_svg0_15_310161/15_297680/1_2344)"><g><path d="M15.48151125,8.2120509278125L19.150231249999997,10.335993007812501C19.51123125,10.5446530078125,19.51123125,11.0682530078125,19.150231249999997,11.2788830078125L11.00052125,15.9992030078125L6.51953125,13.4028230078125L15.48151125,8.2100830078125L15.48151125,8.2120509278125Z" fill="#AB9BFF" fill-opacity="1"/></g></g><g mask="url(#master_svg1_15_310161/15_297680/1_2333)"><g><path d="M10.9989673046875,15.9991455078125L15.4818873046875,18.5955155078125L6.5179773046875,23.7862955078125L2.0369873046875,21.1918855078125L10.9989673046875,15.9991455078125Z" fill="#00EBD2" fill-opacity="1"/></g></g><g mask="url(#master_svg2_15_310161/15_297680/1_2331)"><g><path d="M19.96443125,21.1914627734375L15.48347125,18.5950927734375L6.51953125,23.7858627734375L11.00052125,26.3822427734375L19.96443125,21.1914627734375Z" fill="#00CFCA" fill-opacity="1"/></g></g><g mask="url(#master_svg3_15_310161/15_297680/1_2339)"><g><path d="M2.0369873046875,10.8085847265625L6.5179773046875,13.4029947265625L15.4818873046875,8.2122147265625L10.9989673046875,5.6158447265625" fill="#7347FF" fill-opacity="1"/></g></g><g mask="url(#master_svg4_15_310161/15_297680/1_2314)"><g><path d="M6.51953125,13.40283203125L6.51953125,18.59557203125L11.00052125,15.99920203125L6.51953125,13.40283203125Z" fill="#1C54E4" fill-opacity="1"/></g></g><g mask="url(#master_svg5_15_310161/15_297680/1_2321)"><g><path d="M19.950421171875,16.9280426953125L19.962191171875,21.1916876953125L15.481201171875,18.5953076953125L19.136231171875,16.4595549953125C19.497221171875,16.2489316953125,19.950421171875,16.5087656953125,19.950421171875,16.9280426953125Z" fill="#00EBD2" fill-opacity="1"/></g></g><g mask="url(#master_svg6_15_310161/15_297680/1_2323)"><g><path d="M2.0369873046875,10.808349609375L6.5179773046875,13.402749609375L6.5179773046875,18.595499609375L2.0369873046875,21.191849609374998L2.0369873046875,10.808349609375Z" fill="#0423DB" fill-opacity="1"/></g></g></g></g><g><path d="M38.368,19.056L33.728,19.056L32.672,22L30.511997,22L34.672,10.896L37.488,10.896L41.616,22L39.391999999999996,22L38.368,19.056ZM37.744,17.296L36.16,12.768L35.968,12.768L34.352000000000004,17.296L37.744,17.296ZM50.688,13.36L50.688,21.344Q50.688,22.24,50.44,22.952Q50.192,23.664,49.647999999999996,24.168Q49.104,24.672,48.232,24.936Q47.36,25.2,46.096000000000004,25.2Q45.519999999999996,25.2,44.88,25.136Q44.24,25.072,43.76,24.992L43.76,23.376Q44.256,23.504,44.84,23.56Q45.424,23.616,45.984,23.616Q47.408,23.616,48.056,23.088Q48.704,22.56,48.704,21.248L48.704,20.64Q48.432,21.28,47.832,21.64Q47.232,22,46.032,22Q44.976,22,44.288,21.68Q43.6,21.36,43.2,20.784Q42.8,20.208,42.647999999999996,19.4Q42.496,18.592,42.496,17.6Q42.496,16.704,42.647999999999996,15.904Q42.8,15.104,43.2,14.504Q43.6,13.904,44.288,13.552Q44.976,13.2,46.032,13.2Q46.64,13.2,47.088,13.304Q47.536,13.408,47.856,13.592Q48.176,13.776,48.376000000000005,14.04Q48.576,14.304,48.704,14.624L48.704,13.36L50.688,13.36ZM46.544,20.496Q47.232,20.496,47.672,20.304Q48.111999999999995,20.112,48.36,19.736Q48.608000000000004,19.36,48.696,18.824Q48.784,18.288,48.784,17.6Q48.784,16.944,48.696,16.416Q48.608000000000004,15.888,48.36,15.512Q48.111999999999995,15.136,47.672,14.936Q47.232,14.736,46.544,14.736Q45.872,14.736,45.488,14.976Q45.104,15.216,44.896,15.608Q44.688,16,44.632,16.52Q44.576,17.04,44.576,17.6Q44.576,18.208,44.64,18.728Q44.704,19.248,44.912,19.648Q45.12,20.048,45.504,20.272Q45.888,20.496,46.544,20.496ZM60.512,16.928Q60.512,17.248,60.488,17.544Q60.464,17.84,60.432,18.064L54.768,18.432Q54.8,19.52,55.376000000000005,20.032Q55.952,20.544,57.248000000000005,20.544Q57.632000000000005,20.544,58.04,20.496Q58.448,20.448,58.824,20.36Q59.2,20.272,59.519999999999996,20.168Q59.84,20.064,60.064,19.952L60.064,21.584Q59.68,21.808,58.816,21.984Q57.952,22.16,56.896,22.16Q55.903999999999996,22.16,55.135999999999996,21.952Q54.367999999999995,21.744,53.84,21.232Q53.312,20.72,53.032,19.856Q52.751999999999995,18.992,52.751999999999995,17.68Q52.751999999999995,16.368,53.032,15.504Q53.312,14.64,53.84,14.128Q54.367999999999995,13.616,55.135999999999996,13.408Q55.903999999999996,13.2,56.896,13.2Q58.016,13.2,58.72,13.496Q59.424,13.792,59.824,14.304Q60.224000000000004,14.816,60.367999999999995,15.488Q60.512,16.16,60.512,16.928ZM58.656,16.72Q58.656,16.32,58.6,15.96Q58.544,15.6,58.352000000000004,15.328Q58.16,15.056,57.816,14.896Q57.472,14.736,56.896,14.736Q56.288,14.736,55.888000000000005,14.88Q55.488,15.024,55.248000000000005,15.312Q55.007999999999996,15.6,54.896,16.024Q54.784,16.448,54.768,17.008L58.656,16.72ZM67.26400000000001,13.2Q68.08,13.2,68.632,13.392Q69.184,13.584,69.52000000000001,13.952Q69.856,14.32,70,14.856Q70.144,15.392,70.144,16.08L70.144,22L68.144,22L68.144,16.64Q68.144,15.728,67.856,15.296Q67.568,14.864,66.656,14.864Q65.888,14.864,65.352,15.144Q64.816,15.424,64.544,16.24L64.544,22L62.544,22L62.544,13.36L64.544,13.36L64.544,14.448Q64.912,13.776,65.64,13.488Q66.368,13.2,67.26400000000001,13.2ZM74.768,14.96L74.768,19.12Q74.768,19.536,74.80799999999999,19.808Q74.848,20.08,74.968,20.24Q75.088,20.4,75.29599999999999,20.456Q75.50399999999999,20.512,75.84,20.512Q76.064,20.512,76.256,20.496Q76.44800000000001,20.48,76.624,20.432L76.624,22.016Q76.368,22.048,76.096,22.072Q75.824,22.096,75.55199999999999,22.096Q74.78399999999999,22.096,74.24799999999999,21.976Q73.712,21.856,73.384,21.544Q73.056,21.232,72.912,20.68Q72.768,20.128,72.768,19.28L72.768,14.96L71.568,14.96L71.568,13.36L72.768,13.36L72.768,11.312L74.768,11.312L74.768,13.36L76.672,13.36L76.672,14.96L74.768,14.96ZM81.12,22.16Q80.624,22.16,80.144,22.128Q79.664,22.096,79.232,22.032Q78.8,21.968,78.44800000000001,21.904Q78.096,21.84,77.856,21.76L77.856,19.888Q78.112,19.984,78.47999999999999,20.064Q78.848,20.144,79.27199999999999,20.208Q79.696,20.272,80.152,20.312Q80.608,20.352,81.056,20.352Q82.208,20.352,82.70400000000001,20.024Q83.2,19.696,83.2,18.848Q83.2,18.464,83.112,18.2Q83.024,17.936,82.78399999999999,17.736Q82.544,17.536,82.12,17.384Q81.696,17.232,81.00800000000001,17.056Q80.128,16.848,79.544,16.608Q78.96000000000001,16.368,78.6,16.008Q78.24000000000001,15.648,78.088,15.144Q77.936,14.64,77.936,13.904Q77.936,12.208,78.936,11.464Q79.936,10.72,81.872,10.72Q82.768,10.72,83.52000000000001,10.84Q84.27199999999999,10.96,84.70400000000001,11.12L84.70400000000001,12.896Q84.47999999999999,12.816,84.16,12.744Q83.84,12.672,83.464,12.608Q83.088,12.544,82.688,12.512Q82.288,12.48,81.936,12.48Q80.928,12.48,80.456,12.752Q79.98400000000001,13.024,79.98400000000001,13.856Q79.98400000000001,14.176,80.048,14.392Q80.112,14.608,80.328,14.776Q80.544,14.944,80.944,15.088Q81.344,15.232,82,15.392Q82.976,15.632,83.608,15.904Q84.24000000000001,16.176,84.608,16.576Q84.976,16.976,85.128,17.536Q85.28,18.096,85.28,18.88Q85.28,20.512,84.288,21.336Q83.29599999999999,22.16,81.12,22.16ZM91.136,22.16Q90.144,22.16,89.368,21.952Q88.592,21.744,88.056,21.232Q87.52000000000001,20.72,87.24000000000001,19.856Q86.96000000000001,18.992,86.96000000000001,17.68Q86.96000000000001,16.368,87.24000000000001,15.504Q87.52000000000001,14.64,88.056,14.128Q88.592,13.616,89.368,13.408Q90.144,13.2,91.136,13.2Q91.80799999999999,13.2,92.392,13.28Q92.976,13.36,93.376,13.488L93.376,15.2Q92.912,15.024,92.416,14.944Q91.92,14.864,91.344,14.864Q90.72,14.864,90.28,15Q89.84,15.136,89.56,15.456Q89.28,15.776,89.152,16.32Q89.024,16.864,89.024,17.696Q89.024,18.512,89.152,19.048Q89.28,19.584,89.56,19.904Q89.84,20.224,90.288,20.352Q90.73599999999999,20.48,91.376,20.48Q91.92,20.48,92.44800000000001,20.4Q92.976,20.32,93.44,20.144L93.44,21.84Q93.24799999999999,21.904,92.98400000000001,21.96Q92.72,22.016,92.408,22.064Q92.096,22.112,91.768,22.136Q91.44,22.16,91.136,22.16ZM99.072,22.16Q98.08,22.16,97.312,21.952Q96.544,21.744,96.016,21.232Q95.488,20.72,95.208,19.856Q94.928,18.992,94.928,17.68Q94.928,16.368,95.208,15.504Q95.488,14.64,96.016,14.128Q96.544,13.616,97.312,13.408Q98.08,13.2,99.072,13.2Q100.064,13.2,100.84,13.408Q101.616,13.616,102.144,14.128Q102.672,14.64,102.952,15.504Q103.232,16.368,103.232,17.68Q103.232,18.992,102.952,19.856Q102.672,20.72,102.144,21.232Q101.616,21.744,100.84,21.952Q100.064,22.16,99.072,22.16ZM99.072,20.608Q99.68,20.608,100.08,20.464Q100.48,20.32,100.72,19.984Q100.96,19.648,101.064,19.088Q101.168,18.528,101.168,17.68Q101.168,16.848,101.064,16.28Q100.96,15.712,100.712,15.368Q100.464,15.024,100.064,14.88Q99.664,14.736,99.072,14.736Q98.48,14.736,98.08,14.88Q97.68,15.024,97.44,15.368Q97.2,15.712,97.096,16.28Q96.992,16.848,96.992,17.68Q96.992,18.528,97.096,19.088Q97.2,19.648,97.448,19.984Q97.696,20.32,98.096,20.464Q98.496,20.608,99.072,20.608ZM109.968,13.2Q111.024,13.2,111.704,13.52Q112.384,13.84,112.776,14.424Q113.168,15.008,113.312,15.84Q113.456,16.672,113.456,17.68Q113.456,18.592,113.312,19.408Q113.168,20.224,112.776,20.84Q112.384,21.456,111.704,21.808Q111.024,22.16,109.968,22.16Q108.768,22.16,108.168,21.784Q107.568,21.408,107.296,20.768L107.296,25.2L105.296,25.2L105.296,13.36L107.296,13.36L107.296,14.576Q107.568,14,108.176,13.6Q108.784,13.2,109.968,13.2ZM109.424,20.608Q110.08,20.608,110.472,20.368Q110.864,20.128,111.064,19.728Q111.264,19.328,111.328,18.792Q111.392,18.256,111.392,17.68Q111.392,17.056,111.328,16.52Q111.264,15.984,111.056,15.584Q110.848,15.184,110.456,14.96Q110.064,14.736,109.424,14.736Q108.768,14.736,108.336,14.936Q107.904,15.136,107.648,15.512Q107.392,15.888,107.288,16.44Q107.184,16.992,107.184,17.68Q107.184,18.352,107.288,18.888Q107.392,19.424,107.648,19.808Q107.904,20.192,108.336,20.4Q108.768,20.608,109.424,20.608ZM122.816,16.928Q122.816,17.248,122.792,17.544Q122.768,17.84,122.736,18.064L117.072,18.432Q117.104,19.52,117.68,20.032Q118.256,20.544,119.552,20.544Q119.936,20.544,120.344,20.496Q120.752,20.448,121.128,20.36Q121.504,20.272,121.824,20.168Q122.144,20.064,122.368,19.952L122.368,21.584Q121.984,21.808,121.12,21.984Q120.256,22.16,119.2,22.16Q118.208,22.16,117.44,21.952Q116.672,21.744,116.144,21.232Q115.616,20.72,115.336,19.856Q115.056,18.992,115.056,17.68Q115.056,16.368,115.336,15.504Q115.616,14.64,116.144,14.128Q116.672,13.616,117.44,13.408Q118.208,13.2,119.2,13.2Q120.32,13.2,121.024,13.496Q121.728,13.792,122.128,14.304Q122.528,14.816,122.672,15.488Q122.816,16.16,122.816,16.928ZM120.96,16.72Q120.96,16.32,120.904,15.96Q120.848,15.6,120.656,15.328Q120.464,15.056,120.12,14.896Q119.776,14.736,119.2,14.736Q118.592,14.736,118.192,14.88Q117.792,15.024,117.552,15.312Q117.312,15.6,117.2,16.024Q117.088,16.448,117.072,17.008L120.96,16.72Z" fill="#26244C" fill-opacity="0.8799999952316284"/></g></g></g></svg>