<svg xmlns="http://www.w3.org/2000/svg" xmlns:xlink="http://www.w3.org/1999/xlink" fill="none" version="1.1" width="20" height="20" viewBox="0 0 20 20"><defs><clipPath id="master_svg0_41_070074/15_526030"><rect x="0" y="0" width="20" height="20" rx="0"/></clipPath></defs><g clip-path="url(#master_svg0_41_070074/15_526030)"><g><path d="M2,17C2,18.6569,3.34315,20,5,20L15,20C16.6569,20,18,18.6569,18,17L18,5L13,0L5,0C3.34315,0,2,1.34315,2,3L2,17Z" fill="#5CCAC3" fill-opacity="1"/></g><g><path d="M13,0L13,3C13,4.10457,13.895431,5,15,5L18,5L13,0Z" fill="#FFFFFF" fill-opacity="0.4000000059604645"/></g><g transform="matrix(1,0,0,-1,0,31)"><path d="M13.28848,22.78879C13.68529,23.22337,14.40938,22.942520000000002,14.40938,22.3538L14.40938,16.144852C14.40938,15.78871,14.12067,15.5,13.76453,15.5C13.40839,15.5,13.119679999999999,15.78871,13.119679999999999,16.144852L13.119679999999999,20.69122L10.55595,17.88317C10.30025,17.603180000000002,9.85934,17.603180000000002,9.60364,17.88317L7.0397,20.69122L7.0397,16.144852C7.0397,15.78871,6.75099,15.5,6.394852,15.5C6.03871,15.5,5.75,15.78871,5.75,16.144852L5.75,22.3538C5.75,22.942520000000002,6.474298,23.22337,6.87111,22.78858L10.0799,19.2744L13.28848,22.78879Z" fill="#FFFFFF" fill-opacity="1"/></g></g></svg>