<svg xmlns="http://www.w3.org/2000/svg" xmlns:xlink="http://www.w3.org/1999/xlink" fill="none" version="1.1" width="160" height="160" viewBox="0 0 160 160">
  <defs>
    <clipPath id="master_svg0_214_10339">
      <rect x="0" y="0" width="160" height="160" rx="0"/>
    </clipPath>
    <linearGradient x1="0.25840845704078674" y1="0.5" x2="1" y2="0.5" id="master_svg1_103_05499">
      <stop offset="0%" stop-color="#5F57D1" stop-opacity="1"/>
      <stop offset="100%" stop-color="#816DFD" stop-opacity="1"/>
    </linearGradient>
    <linearGradient x1="0.25840845704078674" y1="0.5" x2="1" y2="0.5" id="master_svg2_103_05499">
      <stop offset="0%" stop-color="#5F57D1" stop-opacity="1"/>
      <stop offset="100%" stop-color="#816DFD" stop-opacity="1"/>
    </linearGradient>
  </defs>
  <g clip-path="url(#master_svg0_214_10339)">
    <g>
      <g transform="matrix(0.7500341534614563,-0.6613990664482117,0.6613990664482117,0.7500341534614563,-20.75523707089303,62.00002443923438)">
        <path d="M71.64710998535156,65.4832074005127C71.64710998535156,61.6037074005127,74.79205998535156,58.458757400512695,78.67155998535156,58.458757400512695L112.38890998535156,58.458757400512695C116.26840998535155,58.458757400512695,119.41330998535156,61.6037074005127,119.41330998535156,65.4832074005127C119.41330998535156,69.36265740051269,116.26840998535155,72.5076574005127,112.38890998535156,72.5076574005127L78.67155998535156,72.5076574005127C74.79205998535156,72.5076574005127,71.64710998535156,69.36265740051269,71.64710998535156,65.4832074005127Z" fill="url(#master_svg1_103_05499)" fill-opacity="1"/>
      </g>
      <g transform="matrix(0.7500341534614563,-0.6613990664482117,0.6613990664482117,0.7500341534614563,-31.597333482716294,82.4857798518292)">
        <path d="M93.32828521728516,90.06995170898438C93.32828521728516,86.19045170898437,96.47323521728515,83.04550170898438,100.35273521728516,83.04550170898438L134.07008521728517,83.04550170898438C137.94958521728515,83.04550170898438,141.09448521728515,86.19045170898437,141.09448521728515,90.06995170898438C141.09448521728515,93.94940170898437,137.94958521728515,97.09440170898438,134.07008521728517,97.09440170898438L100.35273521728516,97.09440170898438C96.47323521728515,97.09440170898438,93.32828521728516,93.94940170898437,93.32828521728516,90.06995170898438Z" fill="url(#master_svg2_103_05499)" fill-opacity="1"/>
      </g>
      <g transform="matrix(0.7500341534614563,-0.6613990664482117,0.6613990664482117,0.7500341534614563,-71.70962666982854,49.26835538937809)">
        <path d="M29.32618236541748,126.99724897216797C29.32618236541748,122.85912897216797,32.68080236541748,119.50450897216797,36.81892236541748,119.50450897216797L72.40948236541749,119.50450897216797C76.54758236541748,119.50450897216797,79.90218236541747,122.85912897216797,79.90218236541747,126.99724897216797C79.90218236541747,131.13540897216797,76.54758236541748,134.49000897216797,72.40948236541749,134.49000897216797L36.81892236541748,134.49000897216797C32.68080236541748,134.49000897216797,29.32618236541748,131.13540897216797,29.32618236541748,126.99724897216797Z" fill="#C4C0FF" fill-opacity="1"/>
      </g>
      <g transform="matrix(0.7500341534614563,-0.6613990664482117,0.6613990664482117,0.7500341534614563,-46.47617924940414,34.151483632334475)">
        <path d="M21.943603515625,120.24115177001954C21.943603515625,143.25945177001955,40.603603515625,161.91955177001955,63.622003515625,161.91955177001955L86.061303515625,161.91955177001955C90.479503515625,161.91955177001955,94.061303515625,158.33785177001954,94.061303515625,153.91955177001955L94.061303515625,86.56275177001953C94.061303515625,82.14447177001954,90.479503515625,78.56275177001953,86.061303515625,78.56275177001953L63.622003515625,78.56275177001953C40.603603515625,78.56275177001953,21.943603515625,97.22275177001953,21.943603515625,120.24115177001954Z" fill="#8C75FE" fill-opacity="1"/>
      </g>
    </g>
  </g>
</svg>
