<svg xmlns="http://www.w3.org/2000/svg" xmlns:xlink="http://www.w3.org/1999/xlink" fill="none" version="1.1" width="40" height="40" viewBox="0 0 40 40"><g><g><g></g><g><g><g><path d="M25.26881171875,10.6057215625L22.47801171875,13.3966865625C21.93101171875,13.943666562499999,21.623811718749998,14.685506562499999,21.623811718749998,15.4590165625C21.623811718749998,17.0698465625,22.92961171875,18.3756865625,24.54041171875,18.3756865625C25.314011718750002,18.3756865625,26.05591171875,18.0683665625,26.60291171875,17.5213565625L29.39321171875,14.7308565625C29.66901171875,15.4881165625,29.81011171875,16.287806562500002,29.81011171875,17.0937165625C29.81011171875,20.907376562499998,26.71851171875,23.998976562499998,22.90481171875,23.998976562499998C22.25551171875,23.998976562499998,21.60951171875,23.907376562499998,20.98581171875,23.7269765625L15.87837171875,28.8341765625L15.87733171875,28.8352765625C15.25221171875,29.4603765625,14.404381718749999,29.8114765625,13.52034171875,29.8114765625C11.67939171875,29.8114765625,10.18701171875,28.3191765625,10.18701171875,26.4781765625C10.18701171875,25.5940765625,10.53821671875,24.7462765625,11.16336371875,24.1210765625L11.16453271875,24.1199765625L16.27168171875,19.0129865625C16.09119171875,18.3892065625,15.99959171875,17.7430865625,15.99959171875,17.0937165625C15.99959171875,13.2800565625,19.091171718749997,10.1884765625,22.90481171875,10.1884765625C23.71111171875,10.1884765625,24.511211718749998,10.3296915625,25.26881171875,10.6057215625Z" fill-rule="evenodd" fill="#00BB5A" fill-opacity="1"/></g></g><g><path d="M27.460147343750002,25.0213284375Q27.460147343750002,25.1350284375,27.45456734375,25.2485984375Q27.448987343749998,25.3621584375,27.43784734375,25.4753184375Q27.42669734375,25.5884684375,27.41001734375,25.7009384375Q27.393327343750002,25.8134084375,27.37114734375,25.9249284375Q27.348967343749997,26.0364484375,27.321337343750002,26.146738437499998Q27.29370734375,26.2570284375,27.26070734375,26.3658384375Q27.227697343750002,26.4746484375,27.189397343750002,26.581698437500002Q27.15108734375,26.6887484375,27.107577343750002,26.7937984375Q27.06406734375,26.8988484375,27.01545734375,27.0016284375Q26.96683734375,27.1044184375,26.913237343749998,27.2046884375Q26.859637343750002,27.3049684375,26.80118734375,27.4024884375Q26.742727343749998,27.5000184375,26.67956734375,27.594558437499998Q26.616397343750002,27.6890984375,26.54865734375,27.7804184375Q26.48092734375,27.8717484375,26.408797343750003,27.9596384375Q26.33666734375,28.0475284375,26.26030734375,28.1317784375Q26.183957343750002,28.2160284375,26.10355734375,28.2964284375Q26.02315734375,28.376828437500002,25.93890734375,28.4531784375Q25.85465734375,28.5295384375,25.76676734375,28.601668437500003Q25.67887734375,28.6737984375,25.58754734375,28.741538437499997Q25.49622734375,28.809268437500002,25.401687343749998,28.8724384375Q25.30714734375,28.9356084375,25.20961734375,28.9940584375Q25.11209734375,29.052508437500002,25.01181734375,29.106108437499998Q24.91154734375,29.1597084375,24.80875734375,29.2083284375Q24.70597734375,29.2569384375,24.60092734375,29.300448437500002Q24.49587734375,29.3439584375,24.388827343750002,29.382268437500002Q24.28177734375,29.420568437500002,24.17296734375,29.4535784375Q24.06415734375,29.4865784375,23.953867343749998,29.514208437500002Q23.84357734375,29.541838437499997,23.73205734375,29.5640184375Q23.62053734375,29.586198437500002,23.50806734375,29.6028884375Q23.39559734375,29.6195684375,23.28244734375,29.6307184375Q23.16928734375,29.641858437499998,23.05572734375,29.6474384375Q22.94216734375,29.653018437500002,22.82845734375,29.653018437500002Q22.71475734375,29.653018437500002,22.601197343750002,29.6474384375Q22.48762734375,29.641858437499998,22.37447734375,29.6307184375Q22.26132734375,29.6195684375,22.14884734375,29.6028884375Q22.03637734375,29.586198437500002,21.92486734375,29.5640184375Q21.81334734375,29.541838437499997,21.70305734375,29.514208437500002Q21.59275734375,29.4865784375,21.48395734375,29.4535784375Q21.37514734375,29.420568437500002,21.26809734375,29.382268437500002Q21.16103734375,29.3439584375,21.05598734375,29.300448437500002Q20.95094734375,29.2569384375,20.84815734375,29.2083284375Q20.74537734375,29.1597084375,20.64509734375,29.106108437499998Q20.54482734375,29.052508437500002,20.44729734375,28.9940584375Q20.34977734375,28.935598437499998,20.25523734375,28.8724384375Q20.16069734375,28.809268437500002,20.06936734375,28.7415284375Q19.97804734375,28.6737984375,19.89014734375,28.601668437500003Q19.80225734375,28.5295384375,19.71800734375,28.4531784375Q19.63376734375,28.376828437500002,19.55336734375,28.2964284375Q19.47296734375,28.2160284375,19.39660734375,28.1317784375Q19.32025734375,28.0475284375,19.24811734375,27.9596384375Q19.17598934375,27.8717484375,19.10825734375,27.7804184375Q19.04052634375,27.6890984375,18.97735634375,27.594558437499998Q18.91418734375,27.5000184375,18.85573334375,27.4024884375Q18.79727934375,27.3049684375,18.74368034375,27.2046884375Q18.69008234375,27.1044184375,18.64146834375,27.0016284375Q18.59285534375,26.8988484375,18.54934334375,26.7937984375Q18.50583134375,26.6887484375,18.46752634375,26.581698437500002Q18.42922134375,26.4746484375,18.39621634375,26.3658384375Q18.36321034375,26.2570284375,18.33558334375,26.146738437499998Q18.30795634375,26.0364484375,18.28577384375,25.9249284375Q18.26359174375,25.8134084375,18.24690834375,25.7009384375Q18.23022484375,25.5884684375,18.21908014375,25.4753184375Q18.20793544375,25.3621584375,18.20235641375,25.2485984375Q18.19677734375,25.1350284375,18.19677734375,25.0213284375Q18.19677734375,24.9076284375,18.20235641375,24.794068437500002Q18.20793544375,24.6804984375,18.21908014375,24.5673484375Q18.23022484375,24.4541884375,18.24690834375,24.3417184375Q18.26359174375,24.2292484375,18.28577384375,24.1177384375Q18.30795634375,24.0062184375,18.33558334375,23.8959284375Q18.36321034375,23.7856284375,18.39621634375,23.6768284375Q18.42922134375,23.5680184375,18.46752634375,23.4609684375Q18.50583134375,23.3539084375,18.54934334375,23.2488584375Q18.59285534375,23.1438184375,18.64146834375,23.0410284375Q18.69008234375,22.9382484375,18.74368034375,22.8379684375Q18.79727934375,22.7376984375,18.85573334375,22.6401684375Q18.91418734375,22.5426484375,18.97735634375,22.4481084375Q19.04052634375,22.3535684375,19.10825734375,22.2622384375Q19.17598934375,22.1709184375,19.24811734375,22.0830184375Q19.32025734375,21.9951284375,19.39660734375,21.9108784375Q19.47296734375,21.8266384375,19.55336734375,21.7462384375Q19.63376734375,21.6658384375,19.71801734375,21.5894784375Q19.80225734375,21.5131284375,19.89014734375,21.4409884375Q19.97804734375,21.3688604375,20.06936734375,21.3011284375Q20.16069734375,21.2333964375,20.25523734375,21.1702274375Q20.34977734375,21.1070584375,20.44729734375,21.0486044375Q20.54482734375,20.9901504375,20.64509734375,20.9365514375Q20.74537734375,20.8829534375,20.84815734375,20.8343394375Q20.95094734375,20.7857264375,21.05599734375,20.7422144375Q21.16103734375,20.6987024375,21.26809734375,20.6603974375Q21.37514734375,20.6220924375,21.48395734375,20.5890874375Q21.59275734375,20.5560814375,21.70305734375,20.5284544375Q21.81334734375,20.5008274375,21.92486734375,20.4786449375Q22.03637734375,20.4564628375,22.14884734375,20.4397794375Q22.26132734375,20.4230959375,22.37447734375,20.4119512375Q22.48762734375,20.4008065375,22.601197343750002,20.3952274975Q22.71475734375,20.3896484375,22.82845734375,20.3896484375Q22.94216734375,20.3896484375,23.05572734375,20.3952274975Q23.16928734375,20.4008065375,23.28244734375,20.4119512375Q23.39559734375,20.4230959375,23.50806734375,20.4397794375Q23.62053734375,20.4564628375,23.73205734375,20.4786449375Q23.84357734375,20.5008274375,23.953867343749998,20.5284544375Q24.06415734375,20.5560814375,24.17296734375,20.5890874375Q24.28177734375,20.6220924375,24.388827343750002,20.6603974375Q24.49587734375,20.6987024375,24.60092734375,20.7422144375Q24.70597734375,20.7857264375,24.80875734375,20.8343394375Q24.91154734375,20.8829534375,25.01181734375,20.9365514375Q25.11209734375,20.9901504375,25.20961734375,21.0486044375Q25.30714734375,21.1070584375,25.401687343749998,21.1702274375Q25.49622734375,21.2333964375,25.58754734375,21.3011284375Q25.67887734375,21.3688604375,25.76676734375,21.4409884375Q25.85465734375,21.5131284375,25.93890734375,21.5894784375Q26.02315734375,21.6658384375,26.10355734375,21.7462384375Q26.183957343750002,21.8266384375,26.26030734375,21.9108784375Q26.33666734375,21.9951284375,26.408797343750003,22.0830184375Q26.48092734375,22.1709184375,26.548667343749997,22.2622384375Q26.616397343750002,22.3535684375,26.67956734375,22.4481084375Q26.74273734375,22.5426484375,26.80118734375,22.6401684375Q26.859647343749998,22.7376984375,26.913237343749998,22.8379684375Q26.96683734375,22.9382484375,27.01545734375,23.0410284375Q27.06406734375,23.1438184375,27.107577343750002,23.2488584375Q27.15108734375,23.3539084375,27.189397343750002,23.4609684375Q27.227697343750002,23.5680184375,27.26070734375,23.6768284375Q27.29370734375,23.7856284375,27.321337343750002,23.8959284375Q27.348967343749997,24.0062184375,27.37114734375,24.1177384375Q27.393327343750002,24.2292484375,27.41001734375,24.3417184375Q27.42669734375,24.4541884375,27.43784734375,24.5673484375Q27.448987343749998,24.6804984375,27.45456734375,24.794068437500002Q27.460147343750002,24.9076284375,27.460147343750002,25.0213284375Z" fill="#97EAB8" fill-opacity="1"/></g><g><path d="M26.86570734375,22.751278437499998C25.70515734375,23.5634784375,24.32290734375,23.9991184375,22.906377343750002,23.9991184375C22.25709734375,23.9991184375,21.61105734375,23.9075484375,20.98735734375,23.7271084375L18.38524434375,26.3291284375C18.26024544375,25.904438437499998,18.19677734375,25.464028437499998,18.19677734375,25.0213284375C18.19677734375,22.4633284375,20.27045734375,20.3896484375,22.82845734375,20.3896484375C24.50204734375,20.3896484375,26.04545734375,21.2924834375,26.86570734375,22.751278437499998Z" fill-rule="evenodd" fill="#01995A" fill-opacity="1"/></g></g></g></g></svg>